<?xml version="1.0" encoding="UTF-8"?><svg id="Layer_1" xmlns="http://www.w3.org/2000/svg" width="535" height="410" viewBox="0 0 535 410"><defs><style>.cls-1{fill:#fff;}.cls-2{fill:#939598;}</style></defs><g><rect class="cls-2" x="1.53" y="14.31" width="14.54" height="13.64"/><rect class="cls-1" x="1.71" y="14.87" width="14.2" height="12.54"/></g><g><rect class="cls-2" x="1.53" y="27.4" width="14.54" height="13.64"/><rect class="cls-1" x="1.71" y="27.96" width="14.2" height="12.54"/></g><g><rect class="cls-2" x="1.53" y="40.49" width="14.54" height="13.64"/><rect class="cls-1" x="1.71" y="41.05" width="14.2" height="12.54"/></g><g><rect class="cls-2" x="1.53" y="53.58" width="14.54" height="13.64"/><rect class="cls-1" x="1.71" y="54.14" width="14.2" height="12.54"/></g><g><rect class="cls-2" x="1.53" y="66.67" width="14.54" height="13.64"/><rect class="cls-1" x="1.71" y="67.23" width="14.2" height="12.54"/></g><g><rect class="cls-2" x="1.53" y="79.76" width="14.54" height="13.64"/><rect class="cls-1" x="1.71" y="80.32" width="14.2" height="12.54"/></g><g><rect class="cls-2" x="1.53" y="92.85" width="14.54" height="13.64"/><rect class="cls-1" x="1.71" y="93.41" width="14.2" height="12.54"/></g><g><rect class="cls-2" x="1.53" y="106.06" width="14.54" height="13.64"/><rect class="cls-1" x="1.7" y="106.62" width="14.2" height="12.54"/></g><g><rect class="cls-2" x="15.9" y="1" width="45.4" height="13.64"/><rect class="cls-1" x="16.44" y="1.56" width="44.31" height="12.54"/></g><g><rect class="cls-2" x="60.58" y="1.01" width="59.77" height="13.64"/><rect class="cls-1" x="61.29" y="1.56" width="58.34" height="12.54"/></g><g><rect class="cls-2" x="119.62" y="1.01" width="59.77" height="13.64"/><rect class="cls-1" x="120.33" y="1.56" width="58.34" height="12.54"/></g><g><rect class="cls-2" x="178.67" y="1.01" width="59.77" height="13.64"/><rect class="cls-1" x="179.38" y="1.56" width="58.34" height="12.54"/></g><g><rect class="cls-2" x="237.72" y="1.01" width="59.77" height="13.64"/><rect class="cls-1" x="238.43" y="1.57" width="58.34" height="12.54"/></g><g><rect class="cls-2" x="296.55" y="1.01" width="59.77" height="13.64"/><rect class="cls-1" x="297.27" y="1.56" width="58.34" height="12.54"/></g><g><rect class="cls-2" x="355.6" y="1.02" width="59.77" height="13.64"/><rect class="cls-1" x="356.31" y="1.57" width="58.34" height="12.54"/></g><g><rect class="cls-2" x="473.69" y="1.02" width="59.77" height="13.64"/><rect class="cls-1" x="474.4" y="1.58" width="58.34" height="12.54"/></g><g><rect class="cls-2" x="414.65" y="1.02" width="59.77" height="13.64"/><rect class="cls-1" x="415.36" y="1.57" width="58.34" height="12.54"/></g><g><g><rect class="cls-2" x="16.08" y="14.32" width="45.21" height="13.63"/><rect class="cls-1" x="16.62" y="14.87" width="44.13" height="12.53"/></g><g><rect class="cls-2" x="16.08" y="27.41" width="45.21" height="13.63"/><rect class="cls-1" x="16.62" y="27.96" width="44.13" height="12.53"/></g><g><rect class="cls-2" x="16.07" y="40.5" width="45.21" height="13.63"/><rect class="cls-1" x="16.61" y="41.05" width="44.13" height="12.53"/></g><g><rect class="cls-2" x="16.07" y="53.59" width="45.21" height="13.63"/><rect class="cls-1" x="16.61" y="54.14" width="44.13" height="12.53"/></g></g><g><g><rect class="cls-2" x="15.91" y="66.67" width="45.38" height="13.63"/><rect class="cls-1" x="16.45" y="67.23" width="44.29" height="12.53"/></g><g><rect class="cls-2" x="15.91" y="79.77" width="45.38" height="13.63"/><rect class="cls-1" x="16.45" y="80.32" width="44.29" height="12.53"/></g><g><rect class="cls-2" x="15.9" y="92.86" width="45.38" height="13.63"/><rect class="cls-1" x="16.44" y="93.41" width="44.29" height="12.53"/></g><g><rect class="cls-2" x="15.9" y="105.95" width="45.38" height="13.63"/><rect class="cls-1" x="16.44" y="106.5" width="44.29" height="12.53"/></g></g><g><g><g><rect class="cls-2" x="60.57" y="14.32" width="59.77" height="13.64"/><rect class="cls-1" x="61.28" y="14.87" width="58.34" height="12.54"/></g><g><rect class="cls-2" x="60.57" y="27.41" width="59.76" height="13.64"/><rect class="cls-1" x="61.28" y="27.97" width="58.33" height="12.54"/></g><g><rect class="cls-2" x="60.57" y="40.49" width="59.76" height="13.64"/><rect class="cls-1" x="61.28" y="41.05" width="58.34" height="12.54"/></g></g><g><g><rect class="cls-2" x="60.58" y="53.59" width="59.77" height="13.64"/><rect class="cls-1" x="61.29" y="54.14" width="58.34" height="12.54"/></g><g><rect class="cls-2" x="60.58" y="66.68" width="59.76" height="13.64"/><rect class="cls-1" x="61.29" y="67.24" width="58.33" height="12.54"/></g><g><rect class="cls-2" x="60.57" y="79.76" width="59.76" height="13.64"/><rect class="cls-1" x="61.28" y="80.32" width="58.34" height="12.54"/></g></g><g><g><rect class="cls-2" x="60.58" y="92.86" width="59.77" height="13.64"/><rect class="cls-1" x="61.29" y="93.41" width="58.34" height="12.54"/></g><g><rect class="cls-2" x="60.58" y="105.96" width="59.76" height="13.64"/><rect class="cls-1" x="61.29" y="106.51" width="58.33" height="12.54"/></g><g><rect class="cls-2" x="60.57" y="119.04" width="59.76" height="13.64"/><rect class="cls-1" x="61.28" y="119.59" width="58.34" height="12.54"/></g></g><g><g><rect class="cls-2" x="60.56" y="132.13" width="59.77" height="13.64"/><rect class="cls-1" x="61.27" y="132.68" width="58.34" height="12.54"/></g><g><rect class="cls-2" x="60.56" y="145.22" width="59.76" height="13.64"/><rect class="cls-1" x="61.27" y="145.78" width="58.33" height="12.54"/></g><g><rect class="cls-2" x="60.56" y="158.3" width="59.76" height="13.64"/><rect class="cls-1" x="61.27" y="158.86" width="58.34" height="12.54"/></g></g><g><g><rect class="cls-2" x="60.58" y="171.39" width="59.77" height="13.64"/><rect class="cls-1" x="61.29" y="171.94" width="58.34" height="12.54"/></g><g><rect class="cls-2" x="60.58" y="184.49" width="59.76" height="13.64"/><rect class="cls-1" x="61.29" y="185.04" width="58.33" height="12.54"/></g><g><rect class="cls-2" x="60.57" y="197.57" width="59.76" height="13.64"/><rect class="cls-1" x="61.28" y="198.12" width="58.34" height="12.54"/></g></g><g><g><rect class="cls-2" x="60.58" y="210.66" width="59.77" height="13.64"/><rect class="cls-1" x="61.29" y="211.21" width="58.34" height="12.54"/></g><g><rect class="cls-2" x="60.58" y="223.75" width="59.76" height="13.64"/><rect class="cls-1" x="61.29" y="224.31" width="58.33" height="12.54"/></g><g><rect class="cls-2" x="60.57" y="236.83" width="59.76" height="13.64"/><rect class="cls-1" x="61.28" y="237.39" width="58.34" height="12.54"/></g></g><g><g><rect class="cls-2" x="60.57" y="249.92" width="59.77" height="13.64"/><rect class="cls-1" x="61.28" y="250.48" width="58.34" height="12.54"/></g><g><rect class="cls-2" x="60.57" y="263.02" width="59.76" height="13.64"/><rect class="cls-1" x="61.28" y="263.57" width="58.33" height="12.54"/></g><g><rect class="cls-2" x="60.57" y="276.1" width="59.76" height="13.64"/><rect class="cls-1" x="61.28" y="276.65" width="58.34" height="12.54"/></g></g><g><g><rect class="cls-2" x="60.56" y="289.19" width="59.77" height="13.64"/><rect class="cls-1" x="61.28" y="289.74" width="58.34" height="12.54"/></g><g><rect class="cls-2" x="60.56" y="302.29" width="59.76" height="13.64"/><rect class="cls-1" x="61.28" y="302.84" width="58.33" height="12.54"/></g><g><rect class="cls-2" x="60.56" y="315.37" width="59.76" height="13.64"/><rect class="cls-1" x="61.27" y="315.92" width="58.34" height="12.54"/></g></g><g><g><rect class="cls-2" x="60.56" y="328.46" width="59.77" height="13.64"/><rect class="cls-1" x="61.28" y="329.01" width="58.34" height="12.54"/></g><g><rect class="cls-2" x="60.56" y="341.56" width="59.76" height="13.64"/><rect class="cls-1" x="61.28" y="342.11" width="58.33" height="12.54"/></g><g><rect class="cls-2" x="60.56" y="354.64" width="59.76" height="13.64"/><rect class="cls-1" x="61.27" y="355.19" width="58.34" height="12.54"/></g></g><g><g><rect class="cls-2" x="60.57" y="367.73" width="59.77" height="13.64"/><rect class="cls-1" x="61.28" y="368.28" width="58.34" height="12.54"/></g><g><rect class="cls-2" x="60.57" y="380.82" width="59.76" height="13.64"/><rect class="cls-1" x="61.28" y="381.38" width="58.33" height="12.54"/></g><g><rect class="cls-2" x="60.56" y="393.9" width="59.76" height="13.64"/><rect class="cls-1" x="61.27" y="394.46" width="58.34" height="12.54"/></g></g></g><g><g><rect class="cls-2" x="15.9" y="119.04" width="45.38" height="13.63"/><rect class="cls-1" x="16.44" y="119.6" width="44.29" height="12.53"/></g><g><rect class="cls-2" x="15.9" y="132.14" width="45.38" height="13.63"/><rect class="cls-1" x="16.44" y="132.69" width="44.29" height="12.53"/></g><g><rect class="cls-2" x="15.89" y="145.23" width="45.38" height="13.63"/><rect class="cls-1" x="16.43" y="145.78" width="44.29" height="12.53"/></g><g><rect class="cls-2" x="15.89" y="158.32" width="45.38" height="13.63"/><rect class="cls-1" x="16.43" y="158.87" width="44.29" height="12.53"/></g></g><g><g><rect class="cls-2" x="15.9" y="171.39" width="45.38" height="13.63"/><rect class="cls-1" x="16.44" y="171.94" width="44.29" height="12.53"/></g><g><rect class="cls-2" x="15.9" y="184.48" width="45.38" height="13.63"/><rect class="cls-1" x="16.44" y="185.03" width="44.29" height="12.53"/></g><g><rect class="cls-2" x="15.9" y="197.57" width="45.38" height="13.63"/><rect class="cls-1" x="16.44" y="198.12" width="44.29" height="12.53"/></g><g><rect class="cls-2" x="15.89" y="210.66" width="45.38" height="13.63"/><rect class="cls-1" x="16.43" y="211.21" width="44.29" height="12.53"/></g></g><g><g><rect class="cls-2" x="15.9" y="223.75" width="45.38" height="13.63"/><rect class="cls-1" x="16.44" y="224.3" width="44.29" height="12.53"/></g><g><rect class="cls-2" x="15.9" y="236.84" width="45.38" height="13.63"/><rect class="cls-1" x="16.44" y="237.39" width="44.29" height="12.53"/></g><g><rect class="cls-2" x="15.9" y="249.93" width="45.38" height="13.63"/><rect class="cls-1" x="16.44" y="250.48" width="44.29" height="12.53"/></g><g><rect class="cls-2" x="15.89" y="263.02" width="45.38" height="13.63"/><rect class="cls-1" x="16.43" y="263.57" width="44.29" height="12.53"/></g></g><g><g><rect class="cls-2" x="15.89" y="276.1" width="45.38" height="13.63"/><rect class="cls-1" x="16.43" y="276.65" width="44.29" height="12.53"/></g><g><rect class="cls-2" x="15.89" y="289.19" width="45.38" height="13.63"/><rect class="cls-1" x="16.43" y="289.75" width="44.29" height="12.53"/></g><g><rect class="cls-2" x="15.89" y="302.28" width="45.38" height="13.63"/><rect class="cls-1" x="16.43" y="302.84" width="44.29" height="12.53"/></g><g><rect class="cls-2" x="15.89" y="315.37" width="45.38" height="13.63"/><rect class="cls-1" x="16.43" y="315.93" width="44.29" height="12.53"/></g></g><g><g><rect class="cls-2" x="15.9" y="328.46" width="45.38" height="13.63"/><rect class="cls-1" x="16.44" y="329.01" width="44.29" height="12.53"/></g><g><rect class="cls-2" x="15.9" y="341.55" width="45.38" height="13.63"/><rect class="cls-1" x="16.44" y="342.11" width="44.29" height="12.53"/></g><g><rect class="cls-2" x="15.89" y="354.64" width="45.38" height="13.63"/><rect class="cls-1" x="16.43" y="355.2" width="44.29" height="12.53"/></g><g><rect class="cls-2" x="15.89" y="367.73" width="45.38" height="13.63"/><rect class="cls-1" x="16.43" y="368.29" width="44.29" height="12.53"/></g></g><g><rect class="cls-2" x="15.9" y="380.79" width="45.38" height="13.63"/><rect class="cls-1" x="16.44" y="381.34" width="44.29" height="12.53"/></g><g><rect class="cls-2" x="15.9" y="393.88" width="45.38" height="13.63"/><rect class="cls-1" x="16.44" y="394.43" width="44.29" height="12.53"/></g><g><g><rect class="cls-2" x="1.53" y="119.03" width="14.54" height="13.64"/><rect class="cls-1" x="1.71" y="119.59" width="14.2" height="12.54"/></g><g><rect class="cls-2" x="1.53" y="132.12" width="14.54" height="13.64"/><rect class="cls-1" x="1.71" y="132.68" width="14.2" height="12.54"/></g><g><rect class="cls-2" x="1.53" y="145.21" width="14.54" height="13.64"/><rect class="cls-1" x="1.71" y="145.77" width="14.2" height="12.54"/></g><g><rect class="cls-2" x="1.53" y="158.3" width="14.54" height="13.64"/><rect class="cls-1" x="1.71" y="158.86" width="14.2" height="12.54"/></g><g><rect class="cls-2" x="1.53" y="171.4" width="14.54" height="13.64"/><rect class="cls-1" x="1.71" y="171.95" width="14.2" height="12.54"/></g><g><rect class="cls-2" x="1.53" y="184.49" width="14.54" height="13.64"/><rect class="cls-1" x="1.71" y="185.04" width="14.2" height="12.54"/></g><g><rect class="cls-2" x="1.53" y="197.58" width="14.54" height="13.64"/><rect class="cls-1" x="1.71" y="198.13" width="14.2" height="12.54"/></g><g><rect class="cls-2" x="1.53" y="210.79" width="14.54" height="13.64"/><rect class="cls-1" x="1.71" y="211.34" width="14.2" height="12.54"/></g></g><g><g><rect class="cls-2" x="1.53" y="223.75" width="14.54" height="13.64"/><rect class="cls-1" x="1.71" y="224.3" width="14.2" height="12.54"/></g><g><rect class="cls-2" x="1.53" y="236.84" width="14.54" height="13.64"/><rect class="cls-1" x="1.71" y="237.39" width="14.2" height="12.54"/></g><g><rect class="cls-2" x="1.53" y="249.93" width="14.54" height="13.64"/><rect class="cls-1" x="1.71" y="250.48" width="14.2" height="12.54"/></g><g><rect class="cls-2" x="1.53" y="263.02" width="14.54" height="13.64"/><rect class="cls-1" x="1.71" y="263.57" width="14.2" height="12.54"/></g><g><rect class="cls-2" x="1.53" y="276.11" width="14.54" height="13.64"/><rect class="cls-1" x="1.71" y="276.66" width="14.2" height="12.54"/></g><g><rect class="cls-2" x="1.53" y="289.2" width="14.54" height="13.64"/><rect class="cls-1" x="1.71" y="289.75" width="14.2" height="12.54"/></g><g><rect class="cls-2" x="1.53" y="302.29" width="14.54" height="13.64"/><rect class="cls-1" x="1.71" y="302.84" width="14.2" height="12.54"/></g><g><rect class="cls-2" x="1.53" y="315.5" width="14.54" height="13.64"/><rect class="cls-1" x="1.7" y="316.05" width="14.2" height="12.54"/></g></g><g><rect class="cls-2" x="1.53" y="328.46" width="14.54" height="13.64"/><rect class="cls-1" x="1.7" y="329.01" width="14.2" height="12.54"/></g><g><rect class="cls-2" x="1.53" y="341.55" width="14.54" height="13.64"/><rect class="cls-1" x="1.7" y="342.1" width="14.2" height="12.54"/></g><g><rect class="cls-2" x="1.53" y="354.64" width="14.54" height="13.64"/><rect class="cls-1" x="1.7" y="355.19" width="14.2" height="12.54"/></g><g><rect class="cls-2" x="1.53" y="367.73" width="14.54" height="13.64"/><rect class="cls-1" x="1.7" y="368.28" width="14.2" height="12.54"/></g><g><rect class="cls-2" x="1.53" y="380.82" width="14.54" height="13.64"/><rect class="cls-1" x="1.7" y="381.38" width="14.2" height="12.54"/></g><g><rect class="cls-2" x="1.53" y="393.91" width="14.54" height="13.64"/><rect class="cls-1" x="1.7" y="394.47" width="14.2" height="12.54"/></g><g><rect class="cls-2" x="1.53" y="1" width="14.54" height="13.64"/><rect class="cls-1" x="1.71" y="1.56" width="14.2" height="12.54"/></g><g><g><g><rect class="cls-2" x="119.63" y="14.32" width="59.77" height="13.64"/><rect class="cls-1" x="120.34" y="14.87" width="58.34" height="12.54"/></g><g><rect class="cls-2" x="119.63" y="27.41" width="59.76" height="13.64"/><rect class="cls-1" x="120.34" y="27.97" width="58.33" height="12.54"/></g><g><rect class="cls-2" x="119.63" y="40.49" width="59.76" height="13.64"/><rect class="cls-1" x="120.34" y="41.05" width="58.34" height="12.54"/></g></g><g><g><rect class="cls-2" x="119.63" y="53.59" width="59.77" height="13.64"/><rect class="cls-1" x="120.35" y="54.14" width="58.34" height="12.54"/></g><g><rect class="cls-2" x="119.63" y="66.68" width="59.76" height="13.64"/><rect class="cls-1" x="120.35" y="67.24" width="58.33" height="12.54"/></g><g><rect class="cls-2" x="119.63" y="79.76" width="59.76" height="13.64"/><rect class="cls-1" x="120.34" y="80.32" width="58.34" height="12.54"/></g></g><g><g><rect class="cls-2" x="119.64" y="92.86" width="59.77" height="13.64"/><rect class="cls-1" x="120.35" y="93.41" width="58.34" height="12.54"/></g><g><rect class="cls-2" x="119.64" y="105.96" width="59.76" height="13.64"/><rect class="cls-1" x="120.35" y="106.51" width="58.33" height="12.54"/></g><g><rect class="cls-2" x="119.63" y="119.04" width="59.76" height="13.64"/><rect class="cls-1" x="120.34" y="119.59" width="58.34" height="12.54"/></g></g><g><g><rect class="cls-2" x="119.62" y="132.13" width="59.77" height="13.64"/><rect class="cls-1" x="120.33" y="132.68" width="58.34" height="12.54"/></g><g><rect class="cls-2" x="119.62" y="145.22" width="59.76" height="13.64"/><rect class="cls-1" x="120.33" y="145.78" width="58.33" height="12.54"/></g><g><rect class="cls-2" x="119.62" y="158.3" width="59.76" height="13.64"/><rect class="cls-1" x="120.33" y="158.86" width="58.34" height="12.54"/></g></g><g><g><rect class="cls-2" x="119.63" y="171.39" width="59.77" height="13.64"/><rect class="cls-1" x="120.35" y="171.94" width="58.34" height="12.54"/></g><g><rect class="cls-2" x="119.63" y="184.49" width="59.76" height="13.64"/><rect class="cls-1" x="120.35" y="185.04" width="58.33" height="12.54"/></g><g><rect class="cls-2" x="119.63" y="197.57" width="59.76" height="13.64"/><rect class="cls-1" x="120.34" y="198.12" width="58.34" height="12.54"/></g></g><g><g><rect class="cls-2" x="119.64" y="210.66" width="59.77" height="13.64"/><rect class="cls-1" x="120.35" y="211.21" width="58.34" height="12.54"/></g><g><rect class="cls-2" x="119.64" y="223.75" width="59.76" height="13.64"/><rect class="cls-1" x="120.35" y="224.31" width="58.33" height="12.54"/></g><g><rect class="cls-2" x="119.63" y="236.83" width="59.76" height="13.64"/><rect class="cls-1" x="120.34" y="237.39" width="58.34" height="12.54"/></g></g><g><g><rect class="cls-2" x="119.63" y="249.92" width="59.77" height="13.64"/><rect class="cls-1" x="120.34" y="250.48" width="58.34" height="12.54"/></g><g><rect class="cls-2" x="119.63" y="263.02" width="59.76" height="13.64"/><rect class="cls-1" x="120.34" y="263.57" width="58.33" height="12.54"/></g><g><rect class="cls-2" x="119.63" y="276.1" width="59.76" height="13.64"/><rect class="cls-1" x="120.34" y="276.65" width="58.34" height="12.54"/></g></g><g><g><rect class="cls-2" x="119.62" y="289.19" width="59.77" height="13.64"/><rect class="cls-1" x="120.33" y="289.74" width="58.34" height="12.54"/></g><g><rect class="cls-2" x="119.62" y="302.29" width="59.76" height="13.64"/><rect class="cls-1" x="120.33" y="302.84" width="58.33" height="12.54"/></g><g><rect class="cls-2" x="119.62" y="315.37" width="59.76" height="13.64"/><rect class="cls-1" x="120.33" y="315.92" width="58.34" height="12.54"/></g></g><g><g><rect class="cls-2" x="119.62" y="328.46" width="59.77" height="13.64"/><rect class="cls-1" x="120.33" y="329.01" width="58.34" height="12.54"/></g><g><rect class="cls-2" x="119.62" y="341.56" width="59.76" height="13.64"/><rect class="cls-1" x="120.33" y="342.11" width="58.33" height="12.54"/></g><g><rect class="cls-2" x="119.62" y="354.64" width="59.76" height="13.64"/><rect class="cls-1" x="120.33" y="355.19" width="58.34" height="12.54"/></g></g><g><g><rect class="cls-2" x="119.63" y="367.73" width="59.77" height="13.64"/><rect class="cls-1" x="120.34" y="368.28" width="58.34" height="12.54"/></g><g><rect class="cls-2" x="119.63" y="380.82" width="59.76" height="13.64"/><rect class="cls-1" x="120.34" y="381.38" width="58.33" height="12.54"/></g><g><rect class="cls-2" x="119.62" y="393.9" width="59.76" height="13.64"/><rect class="cls-1" x="120.33" y="394.46" width="58.34" height="12.54"/></g></g></g><g><g><g><rect class="cls-2" x="178.68" y="14.32" width="59.77" height="13.64"/><rect class="cls-1" x="179.39" y="14.87" width="58.34" height="12.54"/></g><g><rect class="cls-2" x="178.68" y="27.41" width="59.76" height="13.64"/><rect class="cls-1" x="179.39" y="27.97" width="58.33" height="12.54"/></g><g><rect class="cls-2" x="178.67" y="40.49" width="59.76" height="13.64"/><rect class="cls-1" x="179.38" y="41.05" width="58.34" height="12.54"/></g></g><g><g><rect class="cls-2" x="178.68" y="53.59" width="59.77" height="13.64"/><rect class="cls-1" x="179.39" y="54.14" width="58.34" height="12.54"/></g><g><rect class="cls-2" x="178.68" y="66.68" width="59.76" height="13.64"/><rect class="cls-1" x="179.39" y="67.24" width="58.33" height="12.54"/></g><g><rect class="cls-2" x="178.67" y="79.76" width="59.76" height="13.64"/><rect class="cls-1" x="179.38" y="80.32" width="58.34" height="12.54"/></g></g><g><g><rect class="cls-2" x="178.68" y="92.86" width="59.77" height="13.64"/><rect class="cls-1" x="179.39" y="93.41" width="58.34" height="12.54"/></g><g><rect class="cls-2" x="178.68" y="105.96" width="59.76" height="13.64"/><rect class="cls-1" x="179.39" y="106.51" width="58.33" height="12.54"/></g><g><rect class="cls-2" x="178.68" y="119.04" width="59.76" height="13.64"/><rect class="cls-1" x="179.39" y="119.59" width="58.34" height="12.54"/></g></g><g><g><rect class="cls-2" x="178.66" y="132.13" width="59.77" height="13.64"/><rect class="cls-1" x="179.37" y="132.68" width="58.34" height="12.54"/></g><g><rect class="cls-2" x="178.66" y="145.22" width="59.76" height="13.64"/><rect class="cls-1" x="179.37" y="145.78" width="58.33" height="12.54"/></g><g><rect class="cls-2" x="178.66" y="158.3" width="59.76" height="13.64"/><rect class="cls-1" x="179.37" y="158.86" width="58.34" height="12.54"/></g></g><g><g><rect class="cls-2" x="178.68" y="171.39" width="59.77" height="13.64"/><rect class="cls-1" x="179.39" y="171.94" width="58.34" height="12.54"/></g><g><rect class="cls-2" x="178.68" y="184.49" width="59.76" height="13.64"/><rect class="cls-1" x="179.39" y="185.04" width="58.33" height="12.54"/></g><g><rect class="cls-2" x="178.67" y="197.57" width="59.76" height="13.64"/><rect class="cls-1" x="179.38" y="198.12" width="58.34" height="12.54"/></g></g><g><g><rect class="cls-2" x="178.68" y="210.66" width="59.77" height="13.64"/><rect class="cls-1" x="179.39" y="211.21" width="58.34" height="12.54"/></g><g><rect class="cls-2" x="178.68" y="223.75" width="59.76" height="13.64"/><rect class="cls-1" x="179.39" y="224.31" width="58.33" height="12.54"/></g><g><rect class="cls-2" x="178.68" y="236.83" width="59.76" height="13.64"/><rect class="cls-1" x="179.39" y="237.39" width="58.34" height="12.54"/></g></g><g><g><rect class="cls-2" x="178.67" y="249.92" width="59.77" height="13.64"/><rect class="cls-1" x="179.38" y="250.48" width="58.34" height="12.54"/></g><g><rect class="cls-2" x="178.67" y="263.02" width="59.76" height="13.64"/><rect class="cls-1" x="179.38" y="263.57" width="58.33" height="12.54"/></g><g><rect class="cls-2" x="178.67" y="276.1" width="59.76" height="13.64"/><rect class="cls-1" x="179.38" y="276.65" width="58.34" height="12.54"/></g></g><g><g><rect class="cls-2" x="178.67" y="289.19" width="59.77" height="13.64"/><rect class="cls-1" x="179.38" y="289.74" width="58.34" height="12.54"/></g><g><rect class="cls-2" x="178.67" y="302.29" width="59.76" height="13.64"/><rect class="cls-1" x="179.38" y="302.84" width="58.33" height="12.54"/></g><g><rect class="cls-2" x="178.66" y="315.37" width="59.76" height="13.64"/><rect class="cls-1" x="179.37" y="315.92" width="58.34" height="12.54"/></g></g><g><g><rect class="cls-2" x="178.67" y="328.46" width="59.77" height="13.64"/><rect class="cls-1" x="179.38" y="329.01" width="58.34" height="12.54"/></g><g><rect class="cls-2" x="178.67" y="341.56" width="59.76" height="13.64"/><rect class="cls-1" x="179.38" y="342.11" width="58.33" height="12.54"/></g><g><rect class="cls-2" x="178.66" y="354.64" width="59.76" height="13.64"/><rect class="cls-1" x="179.37" y="355.19" width="58.34" height="12.54"/></g></g><g><g><rect class="cls-2" x="178.67" y="367.73" width="59.77" height="13.64"/><rect class="cls-1" x="179.38" y="368.28" width="58.34" height="12.54"/></g><g><rect class="cls-2" x="178.67" y="380.82" width="59.76" height="13.64"/><rect class="cls-1" x="179.38" y="381.38" width="58.33" height="12.54"/></g><g><rect class="cls-2" x="178.66" y="393.9" width="59.76" height="13.64"/><rect class="cls-1" x="179.37" y="394.46" width="58.34" height="12.54"/></g></g></g><g><g><g><rect class="cls-2" x="237.72" y="14.32" width="59.77" height="13.64"/><rect class="cls-1" x="238.43" y="14.87" width="58.34" height="12.54"/></g><g><rect class="cls-2" x="237.72" y="27.41" width="59.76" height="13.64"/><rect class="cls-1" x="238.43" y="27.97" width="58.33" height="12.54"/></g><g><rect class="cls-2" x="237.72" y="40.49" width="59.76" height="13.64"/><rect class="cls-1" x="238.43" y="41.05" width="58.34" height="12.54"/></g></g><g><g><rect class="cls-2" x="237.72" y="53.59" width="59.77" height="13.64"/><rect class="cls-1" x="238.43" y="54.14" width="58.34" height="12.54"/></g><g><rect class="cls-2" x="237.72" y="66.68" width="59.76" height="13.64"/><rect class="cls-1" x="238.43" y="67.24" width="58.33" height="12.54"/></g><g><rect class="cls-2" x="237.72" y="79.76" width="59.76" height="13.64"/><rect class="cls-1" x="238.43" y="80.32" width="58.34" height="12.54"/></g></g><g><g><rect class="cls-2" x="237.73" y="92.86" width="59.77" height="13.64"/><rect class="cls-1" x="238.44" y="93.41" width="58.34" height="12.54"/></g><g><rect class="cls-2" x="237.73" y="105.96" width="59.76" height="13.64"/><rect class="cls-1" x="238.44" y="106.51" width="58.33" height="12.54"/></g><g><rect class="cls-2" x="237.72" y="119.04" width="59.76" height="13.64"/><rect class="cls-1" x="238.43" y="119.59" width="58.34" height="12.54"/></g></g><g><g><rect class="cls-2" x="237.71" y="132.13" width="59.77" height="13.64"/><rect class="cls-1" x="238.42" y="132.68" width="58.34" height="12.54"/></g><g><rect class="cls-2" x="237.71" y="145.22" width="59.76" height="13.64"/><rect class="cls-1" x="238.42" y="145.78" width="58.33" height="12.54"/></g><g><rect class="cls-2" x="237.71" y="158.3" width="59.76" height="13.64"/><rect class="cls-1" x="238.42" y="158.86" width="58.34" height="12.54"/></g></g><g><g><rect class="cls-2" x="237.72" y="171.39" width="59.77" height="13.64"/><rect class="cls-1" x="238.43" y="171.94" width="58.34" height="12.54"/></g><g><rect class="cls-2" x="237.72" y="184.49" width="59.76" height="13.64"/><rect class="cls-1" x="238.43" y="185.04" width="58.33" height="12.54"/></g><g><rect class="cls-2" x="237.72" y="197.57" width="59.76" height="13.64"/><rect class="cls-1" x="238.43" y="198.12" width="58.34" height="12.54"/></g></g><g><g><rect class="cls-2" x="237.73" y="210.66" width="59.77" height="13.64"/><rect class="cls-1" x="238.44" y="211.21" width="58.34" height="12.54"/></g><g><rect class="cls-2" x="237.73" y="223.75" width="59.76" height="13.64"/><rect class="cls-1" x="238.44" y="224.31" width="58.33" height="12.54"/></g><g><rect class="cls-2" x="237.72" y="236.83" width="59.76" height="13.64"/><rect class="cls-1" x="238.43" y="237.39" width="58.34" height="12.54"/></g></g><g><g><rect class="cls-2" x="237.72" y="249.92" width="59.77" height="13.64"/><rect class="cls-1" x="238.43" y="250.48" width="58.34" height="12.54"/></g><g><rect class="cls-2" x="237.72" y="263.02" width="59.76" height="13.64"/><rect class="cls-1" x="238.43" y="263.57" width="58.33" height="12.54"/></g><g><rect class="cls-2" x="237.71" y="276.1" width="59.76" height="13.64"/><rect class="cls-1" x="238.42" y="276.65" width="58.34" height="12.54"/></g></g><g><g><rect class="cls-2" x="237.71" y="289.19" width="59.77" height="13.64"/><rect class="cls-1" x="238.42" y="289.74" width="58.34" height="12.54"/></g><g><rect class="cls-2" x="237.71" y="302.29" width="59.76" height="13.64"/><rect class="cls-1" x="238.42" y="302.84" width="58.33" height="12.54"/></g><g><rect class="cls-2" x="237.71" y="315.37" width="59.76" height="13.64"/><rect class="cls-1" x="238.42" y="315.92" width="58.34" height="12.54"/></g></g><g><g><rect class="cls-2" x="237.71" y="328.46" width="59.77" height="13.64"/><rect class="cls-1" x="238.42" y="329.01" width="58.34" height="12.54"/></g><g><rect class="cls-2" x="237.71" y="341.56" width="59.76" height="13.64"/><rect class="cls-1" x="238.42" y="342.11" width="58.33" height="12.54"/></g><g><rect class="cls-2" x="237.71" y="354.64" width="59.76" height="13.64"/><rect class="cls-1" x="238.42" y="355.19" width="58.34" height="12.54"/></g></g><g><g><rect class="cls-2" x="237.71" y="367.73" width="59.77" height="13.64"/><rect class="cls-1" x="238.42" y="368.28" width="58.34" height="12.54"/></g><g><rect class="cls-2" x="237.71" y="380.82" width="59.76" height="13.64"/><rect class="cls-1" x="238.42" y="381.38" width="58.33" height="12.54"/></g><g><rect class="cls-2" x="237.71" y="393.9" width="59.76" height="13.64"/><rect class="cls-1" x="238.42" y="394.46" width="58.34" height="12.54"/></g></g></g><g><g><g><rect class="cls-2" x="296.56" y="14.32" width="59.77" height="13.64"/><rect class="cls-1" x="297.27" y="14.87" width="58.34" height="12.54"/></g><g><rect class="cls-2" x="296.56" y="27.41" width="59.76" height="13.64"/><rect class="cls-1" x="297.27" y="27.97" width="58.33" height="12.54"/></g><g><rect class="cls-2" x="296.56" y="40.49" width="59.76" height="13.64"/><rect class="cls-1" x="297.27" y="41.05" width="58.34" height="12.54"/></g></g><g><g><rect class="cls-2" x="296.56" y="53.59" width="59.77" height="13.64"/><rect class="cls-1" x="297.27" y="54.14" width="58.34" height="12.54"/></g><g><rect class="cls-2" x="296.56" y="66.68" width="59.76" height="13.64"/><rect class="cls-1" x="297.27" y="67.24" width="58.33" height="12.54"/></g><g><rect class="cls-2" x="296.56" y="79.76" width="59.76" height="13.64"/><rect class="cls-1" x="297.27" y="80.32" width="58.34" height="12.54"/></g></g><g><g><rect class="cls-2" x="296.56" y="92.86" width="59.77" height="13.64"/><rect class="cls-1" x="297.27" y="93.41" width="58.34" height="12.54"/></g><g><rect class="cls-2" x="296.56" y="105.96" width="59.76" height="13.64"/><rect class="cls-1" x="297.27" y="106.51" width="58.33" height="12.54"/></g><g><rect class="cls-2" x="296.56" y="119.04" width="59.76" height="13.64"/><rect class="cls-1" x="297.27" y="119.59" width="58.34" height="12.54"/></g></g><g><g><rect class="cls-2" x="296.55" y="132.13" width="59.77" height="13.64"/><rect class="cls-1" x="297.26" y="132.68" width="58.34" height="12.54"/></g><g><rect class="cls-2" x="296.55" y="145.22" width="59.76" height="13.64"/><rect class="cls-1" x="297.26" y="145.78" width="58.33" height="12.54"/></g><g><rect class="cls-2" x="296.54" y="158.3" width="59.76" height="13.64"/><rect class="cls-1" x="297.26" y="158.86" width="58.34" height="12.54"/></g></g><g><g><rect class="cls-2" x="296.56" y="171.39" width="59.77" height="13.64"/><rect class="cls-1" x="297.27" y="171.94" width="58.34" height="12.54"/></g><g><rect class="cls-2" x="296.56" y="184.49" width="59.76" height="13.64"/><rect class="cls-1" x="297.27" y="185.04" width="58.33" height="12.54"/></g><g><rect class="cls-2" x="296.56" y="197.57" width="59.76" height="13.64"/><rect class="cls-1" x="297.27" y="198.12" width="58.34" height="12.54"/></g></g><g><g><rect class="cls-2" x="296.56" y="210.66" width="59.77" height="13.64"/><rect class="cls-1" x="297.27" y="211.21" width="58.34" height="12.54"/></g><g><rect class="cls-2" x="296.56" y="223.75" width="59.76" height="13.64"/><rect class="cls-1" x="297.27" y="224.31" width="58.33" height="12.54"/></g><g><rect class="cls-2" x="296.56" y="236.83" width="59.76" height="13.64"/><rect class="cls-1" x="297.27" y="237.39" width="58.34" height="12.54"/></g></g><g><g><rect class="cls-2" x="296.56" y="249.92" width="59.77" height="13.64"/><rect class="cls-1" x="297.27" y="250.48" width="58.34" height="12.54"/></g><g><rect class="cls-2" x="296.56" y="263.02" width="59.76" height="13.64"/><rect class="cls-1" x="297.27" y="263.57" width="58.33" height="12.54"/></g><g><rect class="cls-2" x="296.55" y="276.1" width="59.76" height="13.64"/><rect class="cls-1" x="297.26" y="276.65" width="58.34" height="12.54"/></g></g><g><g><rect class="cls-2" x="296.55" y="289.19" width="59.77" height="13.64"/><rect class="cls-1" x="297.26" y="289.74" width="58.34" height="12.54"/></g><g><rect class="cls-2" x="296.55" y="302.29" width="59.76" height="13.64"/><rect class="cls-1" x="297.26" y="302.84" width="58.33" height="12.54"/></g><g><rect class="cls-2" x="296.55" y="315.37" width="59.76" height="13.64"/><rect class="cls-1" x="297.26" y="315.92" width="58.34" height="12.54"/></g></g><g><g><rect class="cls-2" x="296.55" y="328.46" width="59.77" height="13.64"/><rect class="cls-1" x="297.26" y="329.01" width="58.34" height="12.54"/></g><g><rect class="cls-2" x="296.55" y="341.56" width="59.76" height="13.64"/><rect class="cls-1" x="297.26" y="342.11" width="58.33" height="12.54"/></g><g><rect class="cls-2" x="296.55" y="354.64" width="59.76" height="13.64"/><rect class="cls-1" x="297.26" y="355.19" width="58.34" height="12.54"/></g></g><g><g><rect class="cls-2" x="296.55" y="367.73" width="59.77" height="13.64"/><rect class="cls-1" x="297.26" y="368.28" width="58.34" height="12.54"/></g><g><rect class="cls-2" x="296.55" y="380.82" width="59.76" height="13.64"/><rect class="cls-1" x="297.26" y="381.38" width="58.33" height="12.54"/></g><g><rect class="cls-2" x="296.55" y="393.9" width="59.76" height="13.64"/><rect class="cls-1" x="297.26" y="394.46" width="58.34" height="12.54"/></g></g></g><g><g><g><rect class="cls-2" x="355.6" y="14.32" width="59.77" height="13.64"/><rect class="cls-1" x="356.31" y="14.87" width="58.34" height="12.54"/></g><g><rect class="cls-2" x="355.6" y="27.41" width="59.76" height="13.64"/><rect class="cls-1" x="356.31" y="27.97" width="58.33" height="12.54"/></g><g><rect class="cls-2" x="355.59" y="40.49" width="59.76" height="13.64"/><rect class="cls-1" x="356.3" y="41.05" width="58.34" height="12.54"/></g></g><g><g><rect class="cls-2" x="355.6" y="53.59" width="59.77" height="13.64"/><rect class="cls-1" x="356.31" y="54.14" width="58.34" height="12.54"/></g><g><rect class="cls-2" x="355.6" y="66.68" width="59.76" height="13.64"/><rect class="cls-1" x="356.31" y="67.24" width="58.33" height="12.54"/></g><g><rect class="cls-2" x="355.6" y="79.76" width="59.76" height="13.64"/><rect class="cls-1" x="356.31" y="80.32" width="58.34" height="12.54"/></g></g><g><g><rect class="cls-2" x="355.6" y="92.86" width="59.77" height="13.64"/><rect class="cls-1" x="356.31" y="93.41" width="58.34" height="12.54"/></g><g><rect class="cls-2" x="355.6" y="105.96" width="59.76" height="13.64"/><rect class="cls-1" x="356.31" y="106.51" width="58.33" height="12.54"/></g><g><rect class="cls-2" x="355.6" y="119.04" width="59.76" height="13.64"/><rect class="cls-1" x="356.31" y="119.59" width="58.34" height="12.54"/></g></g><g><g><rect class="cls-2" x="355.59" y="132.13" width="59.77" height="13.64"/><rect class="cls-1" x="356.3" y="132.68" width="58.34" height="12.54"/></g><g><rect class="cls-2" x="355.59" y="145.22" width="59.76" height="13.64"/><rect class="cls-1" x="356.3" y="145.78" width="58.33" height="12.54"/></g><g><rect class="cls-2" x="355.58" y="158.3" width="59.76" height="13.64"/><rect class="cls-1" x="356.29" y="158.86" width="58.34" height="12.54"/></g></g><g><g><rect class="cls-2" x="355.6" y="171.39" width="59.77" height="13.64"/><rect class="cls-1" x="356.31" y="171.94" width="58.34" height="12.54"/></g><g><rect class="cls-2" x="355.6" y="184.49" width="59.76" height="13.64"/><rect class="cls-1" x="356.31" y="185.04" width="58.33" height="12.54"/></g><g><rect class="cls-2" x="355.6" y="197.57" width="59.76" height="13.64"/><rect class="cls-1" x="356.31" y="198.12" width="58.34" height="12.54"/></g></g><g><g><rect class="cls-2" x="355.6" y="210.66" width="59.77" height="13.64"/><rect class="cls-1" x="356.31" y="211.21" width="58.34" height="12.54"/></g><g><rect class="cls-2" x="355.6" y="223.75" width="59.76" height="13.64"/><rect class="cls-1" x="356.31" y="224.31" width="58.33" height="12.54"/></g><g><rect class="cls-2" x="355.6" y="236.83" width="59.76" height="13.64"/><rect class="cls-1" x="356.31" y="237.39" width="58.34" height="12.54"/></g></g><g><g><rect class="cls-2" x="355.6" y="249.92" width="59.77" height="13.64"/><rect class="cls-1" x="356.31" y="250.48" width="58.34" height="12.54"/></g><g><rect class="cls-2" x="355.6" y="263.02" width="59.76" height="13.64"/><rect class="cls-1" x="356.31" y="263.57" width="58.33" height="12.54"/></g><g><rect class="cls-2" x="355.59" y="276.1" width="59.76" height="13.64"/><rect class="cls-1" x="356.3" y="276.65" width="58.34" height="12.54"/></g></g><g><g><rect class="cls-2" x="355.59" y="289.19" width="59.77" height="13.64"/><rect class="cls-1" x="356.3" y="289.74" width="58.34" height="12.54"/></g><g><rect class="cls-2" x="355.59" y="302.29" width="59.76" height="13.64"/><rect class="cls-1" x="356.3" y="302.84" width="58.33" height="12.54"/></g><g><rect class="cls-2" x="355.59" y="315.37" width="59.76" height="13.64"/><rect class="cls-1" x="356.3" y="315.92" width="58.34" height="12.54"/></g></g><g><g><rect class="cls-2" x="355.59" y="328.46" width="59.77" height="13.64"/><rect class="cls-1" x="356.3" y="329.01" width="58.34" height="12.54"/></g><g><rect class="cls-2" x="355.59" y="341.56" width="59.76" height="13.64"/><rect class="cls-1" x="356.3" y="342.11" width="58.33" height="12.54"/></g><g><rect class="cls-2" x="355.59" y="354.64" width="59.76" height="13.64"/><rect class="cls-1" x="356.3" y="355.19" width="58.34" height="12.54"/></g></g><g><g><rect class="cls-2" x="355.59" y="367.73" width="59.77" height="13.64"/><rect class="cls-1" x="356.3" y="368.28" width="58.34" height="12.54"/></g><g><rect class="cls-2" x="355.59" y="380.82" width="59.76" height="13.64"/><rect class="cls-1" x="356.3" y="381.38" width="58.33" height="12.54"/></g><g><rect class="cls-2" x="355.59" y="393.9" width="59.76" height="13.64"/><rect class="cls-1" x="356.3" y="394.46" width="58.34" height="12.54"/></g></g></g><g><g><g><rect class="cls-2" x="414.65" y="14.32" width="59.77" height="13.64"/><rect class="cls-1" x="415.36" y="14.87" width="58.34" height="12.54"/></g><g><rect class="cls-2" x="414.65" y="27.41" width="59.76" height="13.64"/><rect class="cls-1" x="415.36" y="27.97" width="58.33" height="12.54"/></g><g><rect class="cls-2" x="414.64" y="40.49" width="59.76" height="13.64"/><rect class="cls-1" x="415.35" y="41.05" width="58.34" height="12.54"/></g></g><g><g><rect class="cls-2" x="414.65" y="53.59" width="59.77" height="13.64"/><rect class="cls-1" x="415.36" y="54.14" width="58.34" height="12.54"/></g><g><rect class="cls-2" x="414.65" y="66.68" width="59.76" height="13.64"/><rect class="cls-1" x="415.36" y="67.24" width="58.33" height="12.54"/></g><g><rect class="cls-2" x="414.65" y="79.76" width="59.76" height="13.64"/><rect class="cls-1" x="415.36" y="80.32" width="58.34" height="12.54"/></g></g><g><g><rect class="cls-2" x="414.65" y="92.86" width="59.77" height="13.64"/><rect class="cls-1" x="415.36" y="93.41" width="58.34" height="12.54"/></g><g><rect class="cls-2" x="414.65" y="105.96" width="59.76" height="13.64"/><rect class="cls-1" x="415.36" y="106.51" width="58.33" height="12.54"/></g><g><rect class="cls-2" x="414.65" y="119.04" width="59.76" height="13.64"/><rect class="cls-1" x="415.36" y="119.59" width="58.34" height="12.54"/></g></g><g><g><rect class="cls-2" x="414.64" y="132.13" width="59.77" height="13.64"/><rect class="cls-1" x="415.35" y="132.68" width="58.34" height="12.54"/></g><g><rect class="cls-2" x="414.64" y="145.22" width="59.76" height="13.64"/><rect class="cls-1" x="415.35" y="145.78" width="58.33" height="12.54"/></g><g><rect class="cls-2" x="414.63" y="158.3" width="59.76" height="13.64"/><rect class="cls-1" x="415.34" y="158.86" width="58.34" height="12.54"/></g></g><g><g><rect class="cls-2" x="414.65" y="171.39" width="59.77" height="13.64"/><rect class="cls-1" x="415.36" y="171.94" width="58.34" height="12.54"/></g><g><rect class="cls-2" x="414.65" y="184.49" width="59.76" height="13.64"/><rect class="cls-1" x="415.36" y="185.04" width="58.33" height="12.54"/></g><g><rect class="cls-2" x="414.65" y="197.57" width="59.76" height="13.64"/><rect class="cls-1" x="415.36" y="198.12" width="58.34" height="12.54"/></g></g><g><g><rect class="cls-2" x="414.65" y="210.66" width="59.77" height="13.64"/><rect class="cls-1" x="415.36" y="211.21" width="58.34" height="12.54"/></g><g><rect class="cls-2" x="414.65" y="223.75" width="59.76" height="13.64"/><rect class="cls-1" x="415.36" y="224.31" width="58.33" height="12.54"/></g><g><rect class="cls-2" x="414.65" y="236.83" width="59.76" height="13.64"/><rect class="cls-1" x="415.36" y="237.39" width="58.34" height="12.54"/></g></g><g><g><rect class="cls-2" x="414.64" y="249.92" width="59.77" height="13.64"/><rect class="cls-1" x="415.36" y="250.48" width="58.34" height="12.54"/></g><g><rect class="cls-2" x="414.64" y="263.02" width="59.76" height="13.64"/><rect class="cls-1" x="415.36" y="263.57" width="58.33" height="12.54"/></g><g><rect class="cls-2" x="414.64" y="276.1" width="59.76" height="13.64"/><rect class="cls-1" x="415.35" y="276.65" width="58.34" height="12.54"/></g></g><g><g><rect class="cls-2" x="414.64" y="289.19" width="59.77" height="13.64"/><rect class="cls-1" x="415.35" y="289.74" width="58.34" height="12.54"/></g><g><rect class="cls-2" x="414.64" y="302.29" width="59.76" height="13.64"/><rect class="cls-1" x="415.35" y="302.84" width="58.33" height="12.54"/></g><g><rect class="cls-2" x="414.63" y="315.37" width="59.76" height="13.64"/><rect class="cls-1" x="415.34" y="315.92" width="58.34" height="12.54"/></g></g><g><g><rect class="cls-2" x="414.64" y="328.46" width="59.77" height="13.64"/><rect class="cls-1" x="415.35" y="329.01" width="58.34" height="12.54"/></g><g><rect class="cls-2" x="414.64" y="341.56" width="59.76" height="13.64"/><rect class="cls-1" x="415.35" y="342.11" width="58.33" height="12.54"/></g><g><rect class="cls-2" x="414.63" y="354.64" width="59.76" height="13.64"/><rect class="cls-1" x="415.34" y="355.19" width="58.34" height="12.54"/></g></g><g><g><rect class="cls-2" x="414.64" y="367.73" width="59.77" height="13.64"/><rect class="cls-1" x="415.35" y="368.28" width="58.34" height="12.54"/></g><g><rect class="cls-2" x="414.64" y="380.82" width="59.76" height="13.64"/><rect class="cls-1" x="415.35" y="381.38" width="58.33" height="12.54"/></g><g><rect class="cls-2" x="414.64" y="393.9" width="59.76" height="13.64"/><rect class="cls-1" x="415.35" y="394.46" width="58.34" height="12.54"/></g></g></g><g><g><g><rect class="cls-2" x="473.7" y="14.32" width="59.77" height="13.64"/><rect class="cls-1" x="474.41" y="14.87" width="58.34" height="12.54"/></g><g><rect class="cls-2" x="473.7" y="27.41" width="59.76" height="13.64"/><rect class="cls-1" x="474.41" y="27.97" width="58.33" height="12.54"/></g><g><rect class="cls-2" x="473.69" y="40.49" width="59.76" height="13.64"/><rect class="cls-1" x="474.4" y="41.05" width="58.34" height="12.54"/></g></g><g><g><rect class="cls-2" x="473.7" y="53.59" width="59.77" height="13.64"/><rect class="cls-1" x="474.41" y="54.14" width="58.34" height="12.54"/></g><g><rect class="cls-2" x="473.7" y="66.68" width="59.76" height="13.64"/><rect class="cls-1" x="474.41" y="67.24" width="58.33" height="12.54"/></g><g><rect class="cls-2" x="473.7" y="79.76" width="59.76" height="13.64"/><rect class="cls-1" x="474.41" y="80.32" width="58.34" height="12.54"/></g></g><g><g><rect class="cls-2" x="473.7" y="92.86" width="59.77" height="13.64"/><rect class="cls-1" x="474.41" y="93.41" width="58.34" height="12.54"/></g><g><rect class="cls-2" x="473.7" y="105.96" width="59.76" height="13.64"/><rect class="cls-1" x="474.41" y="106.51" width="58.33" height="12.54"/></g><g><rect class="cls-2" x="473.7" y="119.04" width="59.76" height="13.64"/><rect class="cls-1" x="474.41" y="119.59" width="58.34" height="12.54"/></g></g><g><g><rect class="cls-2" x="473.69" y="132.13" width="59.77" height="13.64"/><rect class="cls-1" x="474.4" y="132.68" width="58.34" height="12.54"/></g><g><rect class="cls-2" x="473.69" y="145.22" width="59.76" height="13.64"/><rect class="cls-1" x="474.4" y="145.78" width="58.33" height="12.54"/></g><g><rect class="cls-2" x="473.68" y="158.3" width="59.76" height="13.64"/><rect class="cls-1" x="474.39" y="158.86" width="58.34" height="12.54"/></g></g><g><g><rect class="cls-2" x="473.7" y="171.39" width="59.77" height="13.64"/><rect class="cls-1" x="474.41" y="171.94" width="58.34" height="12.54"/></g><g><rect class="cls-2" x="473.7" y="184.49" width="59.76" height="13.64"/><rect class="cls-1" x="474.41" y="185.04" width="58.33" height="12.54"/></g><g><rect class="cls-2" x="473.7" y="197.57" width="59.76" height="13.64"/><rect class="cls-1" x="474.41" y="198.12" width="58.34" height="12.54"/></g></g><g><g><rect class="cls-2" x="473.7" y="210.66" width="59.77" height="13.64"/><rect class="cls-1" x="474.41" y="211.21" width="58.34" height="12.54"/></g><g><rect class="cls-2" x="473.7" y="223.75" width="59.76" height="13.64"/><rect class="cls-1" x="474.41" y="224.31" width="58.33" height="12.54"/></g><g><rect class="cls-2" x="473.7" y="236.83" width="59.76" height="13.64"/><rect class="cls-1" x="474.41" y="237.39" width="58.34" height="12.54"/></g></g><g><g><rect class="cls-2" x="473.7" y="249.92" width="59.77" height="13.64"/><rect class="cls-1" x="474.41" y="250.48" width="58.34" height="12.54"/></g><g><rect class="cls-2" x="473.7" y="263.02" width="59.76" height="13.64"/><rect class="cls-1" x="474.41" y="263.57" width="58.33" height="12.54"/></g><g><rect class="cls-2" x="473.69" y="276.1" width="59.76" height="13.64"/><rect class="cls-1" x="474.4" y="276.65" width="58.34" height="12.54"/></g></g><g><g><rect class="cls-2" x="473.69" y="289.19" width="59.77" height="13.64"/><rect class="cls-1" x="474.4" y="289.74" width="58.34" height="12.54"/></g><g><rect class="cls-2" x="473.69" y="302.29" width="59.76" height="13.64"/><rect class="cls-1" x="474.4" y="302.84" width="58.33" height="12.54"/></g><g><rect class="cls-2" x="473.68" y="315.37" width="59.76" height="13.64"/><rect class="cls-1" x="474.39" y="315.92" width="58.34" height="12.54"/></g></g><g><g><rect class="cls-2" x="473.69" y="328.46" width="59.77" height="13.64"/><rect class="cls-1" x="474.4" y="329.01" width="58.34" height="12.54"/></g><g><rect class="cls-2" x="473.69" y="341.56" width="59.76" height="13.64"/><rect class="cls-1" x="474.4" y="342.11" width="58.33" height="12.54"/></g><g><rect class="cls-2" x="473.68" y="354.64" width="59.76" height="13.64"/><rect class="cls-1" x="474.39" y="355.19" width="58.34" height="12.54"/></g></g><g><g><rect class="cls-2" x="473.69" y="367.73" width="59.77" height="13.64"/><rect class="cls-1" x="474.4" y="368.28" width="58.34" height="12.54"/></g><g><rect class="cls-2" x="473.69" y="380.82" width="59.76" height="13.64"/><rect class="cls-1" x="474.4" y="381.38" width="58.33" height="12.54"/></g><g><rect class="cls-2" x="473.69" y="393.9" width="59.76" height="13.64"/><rect class="cls-1" x="474.4" y="394.46" width="58.34" height="12.54"/></g></g></g></svg>