<?xml version="1.0" encoding="UTF-8"?><svg id="Layer_1" xmlns="http://www.w3.org/2000/svg" width="535" height="420" viewBox="0 0 535 420"><defs><style>.cls-1{fill:#fff;}.cls-2{fill:#939598;}.cls-3{fill:#231f20;}.cls-4{fill:#3b51a3;}</style></defs><rect class="cls-4" x="1.53" y="2" width="531.93" height="10"/><g><rect class="cls-2" x="1.53" y="25.32" width="14.54" height="13.64"/><rect class="cls-1" x="1.71" y="25.87" width="14.2" height="12.54"/></g><g><rect class="cls-2" x="1.53" y="38.41" width="14.54" height="13.64"/><rect class="cls-1" x="1.71" y="38.96" width="14.2" height="12.54"/></g><g><rect class="cls-2" x="1.53" y="51.5" width="14.54" height="13.64"/><rect class="cls-1" x="1.71" y="52.05" width="14.2" height="12.54"/></g><g><rect class="cls-2" x="1.53" y="64.59" width="14.54" height="13.64"/><rect class="cls-1" x="1.71" y="65.14" width="14.2" height="12.54"/></g><g><rect class="cls-2" x="1.53" y="77.68" width="14.54" height="13.64"/><rect class="cls-1" x="1.71" y="78.23" width="14.2" height="12.54"/></g><g><rect class="cls-2" x="1.53" y="90.77" width="14.54" height="13.64"/><rect class="cls-1" x="1.71" y="91.32" width="14.2" height="12.54"/></g><g><rect class="cls-2" x="1.53" y="103.86" width="14.54" height="13.64"/><rect class="cls-1" x="1.71" y="104.41" width="14.2" height="12.54"/></g><g><rect class="cls-2" x="1.53" y="117.07" width="14.54" height="13.64"/><rect class="cls-1" x="1.7" y="117.62" width="14.2" height="12.54"/></g><g><rect class="cls-2" x="15.9" y="12.01" width="45.4" height="13.64"/><rect class="cls-1" x="16.44" y="12.56" width="44.31" height="12.54"/></g><g><rect class="cls-2" x="60.58" y="12.01" width="59.77" height="13.64"/><rect class="cls-1" x="61.29" y="12.56" width="58.34" height="12.54"/></g><g><rect class="cls-2" x="119.62" y="12.01" width="59.77" height="13.64"/><rect class="cls-1" x="120.33" y="12.56" width="58.34" height="12.54"/></g><g><rect class="cls-2" x="178.67" y="12.01" width="59.77" height="13.64"/><rect class="cls-1" x="179.38" y="12.57" width="58.34" height="12.54"/></g><g><rect class="cls-2" x="237.72" y="12.02" width="59.77" height="13.64"/><rect class="cls-1" x="238.43" y="12.57" width="58.34" height="12.54"/></g><g><rect class="cls-2" x="296.55" y="12.01" width="59.77" height="13.64"/><rect class="cls-1" x="297.27" y="12.57" width="58.34" height="12.54"/></g><g><rect class="cls-2" x="355.6" y="12.02" width="59.77" height="13.64"/><rect class="cls-1" x="356.31" y="12.57" width="58.34" height="12.54"/></g><g><rect class="cls-2" x="473.69" y="12.03" width="59.77" height="13.64"/><rect class="cls-1" x="474.4" y="12.58" width="58.34" height="12.54"/></g><g><rect class="cls-2" x="414.65" y="12.02" width="59.77" height="13.64"/><rect class="cls-1" x="415.36" y="12.58" width="58.34" height="12.54"/></g><path class="cls-3" d="M38.71,22.67v.48h-2.89v-.48l.96-.14v-6.38l-.96-.14v-.48h3.49c1.88,0,3.07,.66,3.07,2.27s-1.34,2.3-3.11,2.3h-1.73v2.43l1.16,.14Zm-1.16-6.46v3.2h1.92c1.6,0,2.12-.79,2.12-1.63s-.49-1.57-2.05-1.57h-1.99Z"/><path class="cls-3" d="M94.45,19.46c0,2.22-1.64,3.96-3.86,3.96s-3.86-1.73-3.86-3.96,1.58-4.05,3.86-4.05,3.86,1.83,3.86,4.05Zm-.79-.01c0-1.67-.98-3.31-3.07-3.31s-3.07,1.64-3.07,3.31,1.02,3.26,3.07,3.26,3.07-1.57,3.07-3.26Z"/><path class="cls-3" d="M150.85,22.67v.48h-2.69v-.48l.96-.14v-6.38l-.96-.14v-.48h3.47c1.71,0,3.11,.53,3.11,2.23,0,1.35-1.13,1.94-2.05,2.11l1.85,2.66,.84,.14v.48h-1.32l-2.17-3.2h-1.99v2.58l.96,.14Zm-.96-3.41h2.09c1.32,0,1.97-.6,1.97-1.49,0-1.12-.78-1.57-2.06-1.57h-1.99v3.06Z"/><path class="cls-3" d="M208.28,16.41v6.32l.96,.14v.48h-2.69v-.48l.96-.14v-6.32h-2.45l-.16,.94h-.55l-.06-1.62h7.2l-.06,1.62h-.55l-.16-.94h-2.45Z"/><path class="cls-3" d="M264.67,23.36v-.48l.96-.14v-6.38l-.96-.14v-.48h6.22l-.06,1.6h-.55l-.16-.91h-3.73v2.89h3.32v.68h-3.32v2.75l1.2,.14v.48h-2.93Z"/><path class="cls-3" d="M330.01,19.38c0,2.22-1.64,3.96-3.86,3.96s-3.86-1.73-3.86-3.96,1.58-4.05,3.86-4.05,3.86,1.83,3.86,4.05Zm-.79-.01c0-1.67-.98-3.31-3.07-3.31s-3.07,1.64-3.07,3.31,1.02,3.26,3.07,3.26,3.07-1.57,3.07-3.26Z"/><path class="cls-3" d="M387.81,22.46h3.56l.16-.96h.54l.06,1.64h-6.04v-.48l.96-.14v-6.38l-.96-.14v-.48h2.69v.48l-.96,.14v6.32Z"/><path class="cls-3" d="M444.18,22.73l.96,.14v.48h-2.69v-.48l.96-.14v-6.38l-.96-.14v-.48h2.69v.48l-.96,.14v6.38Z"/><path class="cls-3" d="M506.91,19.59c0,2.22-1.64,3.96-3.86,3.96s-3.86-1.73-3.86-3.96,1.58-4.05,3.86-4.05,3.86,1.83,3.86,4.05Zm-.79-.01c0-1.67-.98-3.31-3.07-3.31s-3.07,1.64-3.07,3.31,1.02,3.26,3.07,3.26,3.07-1.57,3.07-3.26Z"/><g><g><rect class="cls-2" x="16.08" y="25.32" width="45.21" height="13.63"/><rect class="cls-1" x="16.62" y="25.87" width="44.13" height="12.53"/></g><g><rect class="cls-2" x="16.08" y="38.41" width="45.21" height="13.63"/><rect class="cls-1" x="16.62" y="38.96" width="44.13" height="12.53"/></g><g><rect class="cls-2" x="16.07" y="51.5" width="45.21" height="13.63"/><rect class="cls-1" x="16.61" y="52.05" width="44.13" height="12.53"/></g><g><rect class="cls-2" x="16.07" y="64.59" width="45.21" height="13.63"/><rect class="cls-1" x="16.61" y="65.14" width="44.13" height="12.53"/></g></g><g><g><rect class="cls-2" x="15.91" y="77.68" width="45.38" height="13.63"/><rect class="cls-1" x="16.45" y="78.23" width="44.29" height="12.53"/></g><g><rect class="cls-2" x="15.91" y="90.77" width="45.38" height="13.63"/><rect class="cls-1" x="16.45" y="91.32" width="44.29" height="12.53"/></g><g><rect class="cls-2" x="15.9" y="103.86" width="45.38" height="13.63"/><rect class="cls-1" x="16.44" y="104.41" width="44.29" height="12.53"/></g><g><rect class="cls-2" x="15.9" y="116.95" width="45.38" height="13.63"/><rect class="cls-1" x="16.44" y="117.5" width="44.29" height="12.53"/></g></g><g><g><g><rect class="cls-2" x="60.57" y="25.32" width="59.77" height="13.64"/><rect class="cls-1" x="61.28" y="25.87" width="58.34" height="12.54"/></g><g><rect class="cls-2" x="60.57" y="38.42" width="59.76" height="13.64"/><rect class="cls-1" x="61.28" y="38.97" width="58.33" height="12.54"/></g><g><rect class="cls-2" x="60.57" y="51.5" width="59.76" height="13.64"/><rect class="cls-1" x="61.28" y="52.05" width="58.34" height="12.54"/></g></g><g><g><rect class="cls-2" x="60.58" y="64.59" width="59.77" height="13.64"/><rect class="cls-1" x="61.29" y="65.14" width="58.34" height="12.54"/></g><g><rect class="cls-2" x="60.58" y="77.69" width="59.76" height="13.64"/><rect class="cls-1" x="61.29" y="78.24" width="58.33" height="12.54"/></g><g><rect class="cls-2" x="60.57" y="90.77" width="59.76" height="13.64"/><rect class="cls-1" x="61.28" y="91.32" width="58.34" height="12.54"/></g></g><g><g><rect class="cls-2" x="60.58" y="103.86" width="59.77" height="13.64"/><rect class="cls-1" x="61.29" y="104.42" width="58.34" height="12.54"/></g><g><rect class="cls-2" x="60.58" y="116.96" width="59.76" height="13.64"/><rect class="cls-1" x="61.29" y="117.51" width="58.33" height="12.54"/></g><g><rect class="cls-2" x="60.57" y="130.04" width="59.76" height="13.64"/><rect class="cls-1" x="61.28" y="130.59" width="58.34" height="12.54"/></g></g><g><g><rect class="cls-2" x="60.56" y="143.13" width="59.77" height="13.64"/><rect class="cls-1" x="61.27" y="143.68" width="58.34" height="12.54"/></g><g><rect class="cls-2" x="60.56" y="156.23" width="59.76" height="13.64"/><rect class="cls-1" x="61.27" y="156.78" width="58.33" height="12.54"/></g><g><rect class="cls-2" x="60.56" y="169.31" width="59.76" height="13.64"/><rect class="cls-1" x="61.27" y="169.86" width="58.34" height="12.54"/></g></g><g><g><rect class="cls-2" x="60.58" y="182.39" width="59.77" height="13.64"/><rect class="cls-1" x="61.29" y="182.94" width="58.34" height="12.54"/></g><g><rect class="cls-2" x="60.58" y="195.49" width="59.76" height="13.64"/><rect class="cls-1" x="61.29" y="196.04" width="58.33" height="12.54"/></g><g><rect class="cls-2" x="60.57" y="208.57" width="59.76" height="13.64"/><rect class="cls-1" x="61.28" y="209.12" width="58.34" height="12.54"/></g></g><g><g><rect class="cls-2" x="60.58" y="221.66" width="59.77" height="13.64"/><rect class="cls-1" x="61.29" y="222.21" width="58.34" height="12.54"/></g><g><rect class="cls-2" x="60.58" y="234.76" width="59.76" height="13.64"/><rect class="cls-1" x="61.29" y="235.31" width="58.33" height="12.54"/></g><g><rect class="cls-2" x="60.57" y="247.84" width="59.76" height="13.64"/><rect class="cls-1" x="61.28" y="248.39" width="58.34" height="12.54"/></g></g><g><g><rect class="cls-2" x="60.57" y="260.93" width="59.77" height="13.64"/><rect class="cls-1" x="61.28" y="261.48" width="58.34" height="12.54"/></g><g><rect class="cls-2" x="60.57" y="274.02" width="59.76" height="13.64"/><rect class="cls-1" x="61.28" y="274.58" width="58.33" height="12.54"/></g><g><rect class="cls-2" x="60.57" y="287.1" width="59.76" height="13.64"/><rect class="cls-1" x="61.28" y="287.66" width="58.34" height="12.54"/></g></g><g><g><rect class="cls-2" x="60.56" y="300.19" width="59.77" height="13.64"/><rect class="cls-1" x="61.28" y="300.75" width="58.34" height="12.54"/></g><g><rect class="cls-2" x="60.56" y="313.29" width="59.76" height="13.64"/><rect class="cls-1" x="61.28" y="313.84" width="58.33" height="12.54"/></g><g><rect class="cls-2" x="60.56" y="326.37" width="59.76" height="13.64"/><rect class="cls-1" x="61.27" y="326.92" width="58.34" height="12.54"/></g></g><g><g><rect class="cls-2" x="60.56" y="339.46" width="59.77" height="13.64"/><rect class="cls-1" x="61.28" y="340.01" width="58.34" height="12.54"/></g><g><rect class="cls-2" x="60.56" y="352.56" width="59.76" height="13.64"/><rect class="cls-1" x="61.28" y="353.11" width="58.33" height="12.54"/></g><g><rect class="cls-2" x="60.56" y="365.64" width="59.76" height="13.64"/><rect class="cls-1" x="61.27" y="366.19" width="58.34" height="12.54"/></g></g><g><g><rect class="cls-2" x="60.57" y="378.73" width="59.77" height="13.64"/><rect class="cls-1" x="61.28" y="379.28" width="58.34" height="12.54"/></g><g><rect class="cls-2" x="60.57" y="391.83" width="59.76" height="13.64"/><rect class="cls-1" x="61.28" y="392.38" width="58.33" height="12.54"/></g><g><rect class="cls-2" x="60.56" y="404.91" width="59.76" height="13.64"/><rect class="cls-1" x="61.27" y="405.46" width="58.34" height="12.54"/></g></g></g><g><g><rect class="cls-2" x="15.9" y="130.05" width="45.38" height="13.63"/><rect class="cls-1" x="16.44" y="130.6" width="44.29" height="12.53"/></g><g><rect class="cls-2" x="15.9" y="143.14" width="45.38" height="13.63"/><rect class="cls-1" x="16.44" y="143.69" width="44.29" height="12.53"/></g><g><rect class="cls-2" x="15.89" y="156.23" width="45.38" height="13.63"/><rect class="cls-1" x="16.43" y="156.78" width="44.29" height="12.53"/></g><g><rect class="cls-2" x="15.89" y="169.32" width="45.38" height="13.63"/><rect class="cls-1" x="16.43" y="169.87" width="44.29" height="12.53"/></g></g><g><g><rect class="cls-2" x="15.9" y="182.39" width="45.38" height="13.63"/><rect class="cls-1" x="16.44" y="182.94" width="44.29" height="12.53"/></g><g><rect class="cls-2" x="15.9" y="195.48" width="45.38" height="13.63"/><rect class="cls-1" x="16.44" y="196.04" width="44.29" height="12.53"/></g><g><rect class="cls-2" x="15.9" y="208.57" width="45.38" height="13.63"/><rect class="cls-1" x="16.44" y="209.13" width="44.29" height="12.53"/></g><g><rect class="cls-2" x="15.89" y="221.66" width="45.38" height="13.63"/><rect class="cls-1" x="16.43" y="222.22" width="44.29" height="12.53"/></g></g><g><g><rect class="cls-2" x="15.9" y="234.75" width="45.38" height="13.63"/><rect class="cls-1" x="16.44" y="235.3" width="44.29" height="12.53"/></g><g><rect class="cls-2" x="15.9" y="247.84" width="45.38" height="13.63"/><rect class="cls-1" x="16.44" y="248.39" width="44.29" height="12.53"/></g><g><rect class="cls-2" x="15.9" y="260.93" width="45.38" height="13.63"/><rect class="cls-1" x="16.44" y="261.48" width="44.29" height="12.53"/></g><g><rect class="cls-2" x="15.89" y="274.02" width="45.38" height="13.63"/><rect class="cls-1" x="16.43" y="274.57" width="44.29" height="12.53"/></g></g><g><g><rect class="cls-2" x="15.89" y="287.1" width="45.38" height="13.63"/><rect class="cls-1" x="16.43" y="287.66" width="44.29" height="12.53"/></g><g><rect class="cls-2" x="15.89" y="300.2" width="45.38" height="13.63"/><rect class="cls-1" x="16.43" y="300.75" width="44.29" height="12.53"/></g><g><rect class="cls-2" x="15.89" y="313.29" width="45.38" height="13.63"/><rect class="cls-1" x="16.43" y="313.84" width="44.29" height="12.53"/></g><g><rect class="cls-2" x="15.89" y="326.38" width="45.38" height="13.63"/><rect class="cls-1" x="16.43" y="326.93" width="44.29" height="12.53"/></g></g><g><g><rect class="cls-2" x="15.9" y="339.46" width="45.38" height="13.63"/><rect class="cls-1" x="16.44" y="340.02" width="44.29" height="12.53"/></g><g><rect class="cls-2" x="15.9" y="352.56" width="45.38" height="13.63"/><rect class="cls-1" x="16.44" y="353.11" width="44.29" height="12.53"/></g><g><rect class="cls-2" x="15.89" y="365.65" width="45.38" height="13.63"/><rect class="cls-1" x="16.43" y="366.2" width="44.29" height="12.53"/></g><g><rect class="cls-2" x="15.89" y="378.74" width="45.38" height="13.63"/><rect class="cls-1" x="16.43" y="379.29" width="44.29" height="12.53"/></g></g><g><rect class="cls-2" x="15.9" y="391.79" width="45.38" height="13.63"/><rect class="cls-1" x="16.44" y="392.34" width="44.29" height="12.53"/></g><g><rect class="cls-2" x="15.9" y="404.88" width="45.38" height="13.63"/><rect class="cls-1" x="16.44" y="405.43" width="44.29" height="12.53"/></g><g><g><rect class="cls-2" x="1.53" y="130.04" width="14.54" height="13.64"/><rect class="cls-1" x="1.71" y="130.59" width="14.2" height="12.54"/></g><g><rect class="cls-2" x="1.53" y="143.13" width="14.54" height="13.64"/><rect class="cls-1" x="1.71" y="143.68" width="14.2" height="12.54"/></g><g><rect class="cls-2" x="1.53" y="156.22" width="14.54" height="13.64"/><rect class="cls-1" x="1.71" y="156.77" width="14.2" height="12.54"/></g><g><rect class="cls-2" x="1.53" y="169.31" width="14.54" height="13.64"/><rect class="cls-1" x="1.71" y="169.86" width="14.2" height="12.54"/></g><g><rect class="cls-2" x="1.53" y="182.4" width="14.54" height="13.64"/><rect class="cls-1" x="1.71" y="182.95" width="14.2" height="12.54"/></g><g><rect class="cls-2" x="1.53" y="195.49" width="14.54" height="13.64"/><rect class="cls-1" x="1.71" y="196.04" width="14.2" height="12.54"/></g><g><rect class="cls-2" x="1.53" y="208.58" width="14.54" height="13.64"/><rect class="cls-1" x="1.71" y="209.13" width="14.2" height="12.54"/></g><g><rect class="cls-2" x="1.53" y="221.79" width="14.54" height="13.64"/><rect class="cls-1" x="1.71" y="222.34" width="14.2" height="12.54"/></g></g><g><g><rect class="cls-2" x="1.53" y="234.75" width="14.54" height="13.64"/><rect class="cls-1" x="1.71" y="235.3" width="14.2" height="12.54"/></g><g><rect class="cls-2" x="1.53" y="247.84" width="14.54" height="13.64"/><rect class="cls-1" x="1.71" y="248.39" width="14.2" height="12.54"/></g><g><rect class="cls-2" x="1.53" y="260.93" width="14.54" height="13.64"/><rect class="cls-1" x="1.71" y="261.48" width="14.2" height="12.54"/></g><g><rect class="cls-2" x="1.53" y="274.02" width="14.54" height="13.64"/><rect class="cls-1" x="1.71" y="274.57" width="14.2" height="12.54"/></g><g><rect class="cls-2" x="1.53" y="287.11" width="14.54" height="13.64"/><rect class="cls-1" x="1.71" y="287.66" width="14.2" height="12.54"/></g><g><rect class="cls-2" x="1.53" y="300.2" width="14.54" height="13.64"/><rect class="cls-1" x="1.71" y="300.75" width="14.2" height="12.54"/></g><g><rect class="cls-2" x="1.53" y="313.29" width="14.54" height="13.64"/><rect class="cls-1" x="1.71" y="313.84" width="14.2" height="12.54"/></g><g><rect class="cls-2" x="1.53" y="326.5" width="14.54" height="13.64"/><rect class="cls-1" x="1.7" y="327.05" width="14.2" height="12.54"/></g></g><g><rect class="cls-2" x="1.53" y="339.46" width="14.54" height="13.64"/><rect class="cls-1" x="1.7" y="340.02" width="14.2" height="12.54"/></g><g><rect class="cls-2" x="1.53" y="352.55" width="14.54" height="13.64"/><rect class="cls-1" x="1.7" y="353.11" width="14.2" height="12.54"/></g><g><rect class="cls-2" x="1.53" y="365.64" width="14.54" height="13.64"/><rect class="cls-1" x="1.7" y="366.2" width="14.2" height="12.54"/></g><g><rect class="cls-2" x="1.53" y="378.73" width="14.54" height="13.64"/><rect class="cls-1" x="1.7" y="379.29" width="14.2" height="12.54"/></g><g><rect class="cls-2" x="1.53" y="391.83" width="14.54" height="13.64"/><rect class="cls-1" x="1.7" y="392.38" width="14.2" height="12.54"/></g><g><rect class="cls-2" x="1.53" y="404.92" width="14.54" height="13.64"/><rect class="cls-1" x="1.7" y="405.47" width="14.2" height="12.54"/></g><g><rect class="cls-2" x="1.53" y="12.01" width="14.54" height="13.64"/><rect class="cls-1" x="1.71" y="12.56" width="14.2" height="12.54"/></g><g><g><g><rect class="cls-2" x="119.63" y="25.32" width="59.77" height="13.64"/><rect class="cls-1" x="120.34" y="25.87" width="58.34" height="12.54"/></g><g><rect class="cls-2" x="119.63" y="38.42" width="59.76" height="13.64"/><rect class="cls-1" x="120.34" y="38.97" width="58.33" height="12.54"/></g><g><rect class="cls-2" x="119.63" y="51.5" width="59.76" height="13.64"/><rect class="cls-1" x="120.34" y="52.05" width="58.34" height="12.54"/></g></g><g><g><rect class="cls-2" x="119.63" y="64.59" width="59.77" height="13.64"/><rect class="cls-1" x="120.35" y="65.14" width="58.34" height="12.54"/></g><g><rect class="cls-2" x="119.63" y="77.69" width="59.76" height="13.64"/><rect class="cls-1" x="120.35" y="78.24" width="58.33" height="12.54"/></g><g><rect class="cls-2" x="119.63" y="90.77" width="59.76" height="13.64"/><rect class="cls-1" x="120.34" y="91.32" width="58.34" height="12.54"/></g></g><g><g><rect class="cls-2" x="119.64" y="103.86" width="59.77" height="13.64"/><rect class="cls-1" x="120.35" y="104.42" width="58.34" height="12.54"/></g><g><rect class="cls-2" x="119.64" y="116.96" width="59.76" height="13.64"/><rect class="cls-1" x="120.35" y="117.51" width="58.33" height="12.54"/></g><g><rect class="cls-2" x="119.63" y="130.04" width="59.76" height="13.64"/><rect class="cls-1" x="120.34" y="130.59" width="58.34" height="12.54"/></g></g><g><g><rect class="cls-2" x="119.62" y="143.13" width="59.77" height="13.64"/><rect class="cls-1" x="120.33" y="143.68" width="58.34" height="12.54"/></g><g><rect class="cls-2" x="119.62" y="156.23" width="59.76" height="13.64"/><rect class="cls-1" x="120.33" y="156.78" width="58.33" height="12.54"/></g><g><rect class="cls-2" x="119.62" y="169.31" width="59.76" height="13.64"/><rect class="cls-1" x="120.33" y="169.86" width="58.34" height="12.54"/></g></g><g><g><rect class="cls-2" x="119.63" y="182.39" width="59.77" height="13.64"/><rect class="cls-1" x="120.35" y="182.94" width="58.34" height="12.54"/></g><g><rect class="cls-2" x="119.63" y="195.49" width="59.76" height="13.64"/><rect class="cls-1" x="120.35" y="196.04" width="58.33" height="12.54"/></g><g><rect class="cls-2" x="119.63" y="208.57" width="59.76" height="13.64"/><rect class="cls-1" x="120.34" y="209.12" width="58.34" height="12.54"/></g></g><g><g><rect class="cls-2" x="119.64" y="221.66" width="59.77" height="13.64"/><rect class="cls-1" x="120.35" y="222.21" width="58.34" height="12.54"/></g><g><rect class="cls-2" x="119.64" y="234.76" width="59.76" height="13.64"/><rect class="cls-1" x="120.35" y="235.31" width="58.33" height="12.54"/></g><g><rect class="cls-2" x="119.63" y="247.84" width="59.76" height="13.64"/><rect class="cls-1" x="120.34" y="248.39" width="58.34" height="12.54"/></g></g><g><g><rect class="cls-2" x="119.63" y="260.93" width="59.77" height="13.64"/><rect class="cls-1" x="120.34" y="261.48" width="58.34" height="12.54"/></g><g><rect class="cls-2" x="119.63" y="274.02" width="59.76" height="13.64"/><rect class="cls-1" x="120.34" y="274.58" width="58.33" height="12.54"/></g><g><rect class="cls-2" x="119.63" y="287.1" width="59.76" height="13.64"/><rect class="cls-1" x="120.34" y="287.66" width="58.34" height="12.54"/></g></g><g><g><rect class="cls-2" x="119.62" y="300.19" width="59.77" height="13.64"/><rect class="cls-1" x="120.33" y="300.75" width="58.34" height="12.54"/></g><g><rect class="cls-2" x="119.62" y="313.29" width="59.76" height="13.64"/><rect class="cls-1" x="120.33" y="313.84" width="58.33" height="12.54"/></g><g><rect class="cls-2" x="119.62" y="326.37" width="59.76" height="13.64"/><rect class="cls-1" x="120.33" y="326.92" width="58.34" height="12.54"/></g></g><g><g><rect class="cls-2" x="119.62" y="339.46" width="59.77" height="13.64"/><rect class="cls-1" x="120.33" y="340.01" width="58.34" height="12.54"/></g><g><rect class="cls-2" x="119.62" y="352.56" width="59.76" height="13.64"/><rect class="cls-1" x="120.33" y="353.11" width="58.33" height="12.54"/></g><g><rect class="cls-2" x="119.62" y="365.64" width="59.76" height="13.64"/><rect class="cls-1" x="120.33" y="366.19" width="58.34" height="12.54"/></g></g><g><g><rect class="cls-2" x="119.63" y="378.73" width="59.77" height="13.64"/><rect class="cls-1" x="120.34" y="379.28" width="58.34" height="12.54"/></g><g><rect class="cls-2" x="119.63" y="391.83" width="59.76" height="13.64"/><rect class="cls-1" x="120.34" y="392.38" width="58.33" height="12.54"/></g><g><rect class="cls-2" x="119.62" y="404.91" width="59.76" height="13.64"/><rect class="cls-1" x="120.33" y="405.46" width="58.34" height="12.54"/></g></g></g><g><g><g><rect class="cls-2" x="178.68" y="25.32" width="59.77" height="13.64"/><rect class="cls-1" x="179.39" y="25.87" width="58.34" height="12.54"/></g><g><rect class="cls-2" x="178.68" y="38.42" width="59.76" height="13.64"/><rect class="cls-1" x="179.39" y="38.97" width="58.33" height="12.54"/></g><g><rect class="cls-2" x="178.67" y="51.5" width="59.76" height="13.64"/><rect class="cls-1" x="179.38" y="52.05" width="58.34" height="12.54"/></g></g><g><g><rect class="cls-2" x="178.68" y="64.59" width="59.77" height="13.64"/><rect class="cls-1" x="179.39" y="65.14" width="58.34" height="12.54"/></g><g><rect class="cls-2" x="178.68" y="77.69" width="59.76" height="13.64"/><rect class="cls-1" x="179.39" y="78.24" width="58.33" height="12.54"/></g><g><rect class="cls-2" x="178.67" y="90.77" width="59.76" height="13.64"/><rect class="cls-1" x="179.38" y="91.32" width="58.34" height="12.54"/></g></g><g><g><rect class="cls-2" x="178.68" y="103.86" width="59.77" height="13.64"/><rect class="cls-1" x="179.39" y="104.42" width="58.34" height="12.54"/></g><g><rect class="cls-2" x="178.68" y="116.96" width="59.76" height="13.64"/><rect class="cls-1" x="179.39" y="117.51" width="58.33" height="12.54"/></g><g><rect class="cls-2" x="178.68" y="130.04" width="59.76" height="13.64"/><rect class="cls-1" x="179.39" y="130.59" width="58.34" height="12.54"/></g></g><g><g><rect class="cls-2" x="178.66" y="143.13" width="59.77" height="13.64"/><rect class="cls-1" x="179.37" y="143.68" width="58.34" height="12.54"/></g><g><rect class="cls-2" x="178.66" y="156.23" width="59.76" height="13.64"/><rect class="cls-1" x="179.37" y="156.78" width="58.33" height="12.54"/></g><g><rect class="cls-2" x="178.66" y="169.31" width="59.76" height="13.64"/><rect class="cls-1" x="179.37" y="169.86" width="58.34" height="12.54"/></g></g><g><g><rect class="cls-2" x="178.68" y="182.39" width="59.77" height="13.64"/><rect class="cls-1" x="179.39" y="182.94" width="58.34" height="12.54"/></g><g><rect class="cls-2" x="178.68" y="195.49" width="59.76" height="13.64"/><rect class="cls-1" x="179.39" y="196.04" width="58.33" height="12.54"/></g><g><rect class="cls-2" x="178.67" y="208.57" width="59.76" height="13.64"/><rect class="cls-1" x="179.38" y="209.12" width="58.34" height="12.54"/></g></g><g><g><rect class="cls-2" x="178.68" y="221.66" width="59.77" height="13.64"/><rect class="cls-1" x="179.39" y="222.21" width="58.34" height="12.54"/></g><g><rect class="cls-2" x="178.68" y="234.76" width="59.76" height="13.64"/><rect class="cls-1" x="179.39" y="235.31" width="58.33" height="12.54"/></g><g><rect class="cls-2" x="178.68" y="247.84" width="59.76" height="13.64"/><rect class="cls-1" x="179.39" y="248.39" width="58.34" height="12.54"/></g></g><g><g><rect class="cls-2" x="178.67" y="260.93" width="59.77" height="13.64"/><rect class="cls-1" x="179.38" y="261.48" width="58.34" height="12.54"/></g><g><rect class="cls-2" x="178.67" y="274.02" width="59.76" height="13.64"/><rect class="cls-1" x="179.38" y="274.58" width="58.33" height="12.54"/></g><g><rect class="cls-2" x="178.67" y="287.1" width="59.76" height="13.64"/><rect class="cls-1" x="179.38" y="287.66" width="58.34" height="12.54"/></g></g><g><g><rect class="cls-2" x="178.67" y="300.19" width="59.77" height="13.64"/><rect class="cls-1" x="179.38" y="300.75" width="58.34" height="12.54"/></g><g><rect class="cls-2" x="178.67" y="313.29" width="59.76" height="13.64"/><rect class="cls-1" x="179.38" y="313.84" width="58.33" height="12.54"/></g><g><rect class="cls-2" x="178.66" y="326.37" width="59.76" height="13.64"/><rect class="cls-1" x="179.37" y="326.92" width="58.34" height="12.54"/></g></g><g><g><rect class="cls-2" x="178.67" y="339.46" width="59.77" height="13.64"/><rect class="cls-1" x="179.38" y="340.01" width="58.34" height="12.54"/></g><g><rect class="cls-2" x="178.67" y="352.56" width="59.76" height="13.64"/><rect class="cls-1" x="179.38" y="353.11" width="58.33" height="12.54"/></g><g><rect class="cls-2" x="178.66" y="365.64" width="59.76" height="13.64"/><rect class="cls-1" x="179.37" y="366.19" width="58.34" height="12.54"/></g></g><g><g><rect class="cls-2" x="178.67" y="378.73" width="59.77" height="13.64"/><rect class="cls-1" x="179.38" y="379.28" width="58.34" height="12.54"/></g><g><rect class="cls-2" x="178.67" y="391.83" width="59.76" height="13.64"/><rect class="cls-1" x="179.38" y="392.38" width="58.33" height="12.54"/></g><g><rect class="cls-2" x="178.66" y="404.91" width="59.76" height="13.64"/><rect class="cls-1" x="179.37" y="405.46" width="58.34" height="12.54"/></g></g></g><g><g><g><rect class="cls-2" x="237.72" y="25.32" width="59.77" height="13.64"/><rect class="cls-1" x="238.43" y="25.87" width="58.34" height="12.54"/></g><g><rect class="cls-2" x="237.72" y="38.42" width="59.76" height="13.64"/><rect class="cls-1" x="238.43" y="38.97" width="58.33" height="12.54"/></g><g><rect class="cls-2" x="237.72" y="51.5" width="59.76" height="13.64"/><rect class="cls-1" x="238.43" y="52.05" width="58.34" height="12.54"/></g></g><g><g><rect class="cls-2" x="237.72" y="64.59" width="59.77" height="13.64"/><rect class="cls-1" x="238.43" y="65.14" width="58.34" height="12.54"/></g><g><rect class="cls-2" x="237.72" y="77.69" width="59.76" height="13.64"/><rect class="cls-1" x="238.43" y="78.24" width="58.33" height="12.54"/></g><g><rect class="cls-2" x="237.72" y="90.77" width="59.76" height="13.64"/><rect class="cls-1" x="238.43" y="91.32" width="58.34" height="12.54"/></g></g><g><g><rect class="cls-2" x="237.73" y="103.86" width="59.77" height="13.64"/><rect class="cls-1" x="238.44" y="104.42" width="58.34" height="12.54"/></g><g><rect class="cls-2" x="237.73" y="116.96" width="59.76" height="13.64"/><rect class="cls-1" x="238.44" y="117.51" width="58.33" height="12.54"/></g><g><rect class="cls-2" x="237.72" y="130.04" width="59.76" height="13.64"/><rect class="cls-1" x="238.43" y="130.59" width="58.34" height="12.54"/></g></g><g><g><rect class="cls-2" x="237.71" y="143.13" width="59.77" height="13.64"/><rect class="cls-1" x="238.42" y="143.68" width="58.34" height="12.54"/></g><g><rect class="cls-2" x="237.71" y="156.23" width="59.76" height="13.64"/><rect class="cls-1" x="238.42" y="156.78" width="58.33" height="12.54"/></g><g><rect class="cls-2" x="237.71" y="169.31" width="59.76" height="13.64"/><rect class="cls-1" x="238.42" y="169.86" width="58.34" height="12.54"/></g></g><g><g><rect class="cls-2" x="237.72" y="182.39" width="59.77" height="13.64"/><rect class="cls-1" x="238.43" y="182.94" width="58.34" height="12.54"/></g><g><rect class="cls-2" x="237.72" y="195.49" width="59.76" height="13.64"/><rect class="cls-1" x="238.43" y="196.04" width="58.33" height="12.54"/></g><g><rect class="cls-2" x="237.72" y="208.57" width="59.76" height="13.64"/><rect class="cls-1" x="238.43" y="209.12" width="58.34" height="12.54"/></g></g><g><g><rect class="cls-2" x="237.73" y="221.66" width="59.77" height="13.64"/><rect class="cls-1" x="238.44" y="222.21" width="58.34" height="12.54"/></g><g><rect class="cls-2" x="237.73" y="234.76" width="59.76" height="13.64"/><rect class="cls-1" x="238.44" y="235.31" width="58.33" height="12.54"/></g><g><rect class="cls-2" x="237.72" y="247.84" width="59.76" height="13.64"/><rect class="cls-1" x="238.43" y="248.39" width="58.34" height="12.54"/></g></g><g><g><rect class="cls-2" x="237.72" y="260.93" width="59.77" height="13.64"/><rect class="cls-1" x="238.43" y="261.48" width="58.34" height="12.54"/></g><g><rect class="cls-2" x="237.72" y="274.02" width="59.76" height="13.64"/><rect class="cls-1" x="238.43" y="274.58" width="58.33" height="12.54"/></g><g><rect class="cls-2" x="237.71" y="287.1" width="59.76" height="13.64"/><rect class="cls-1" x="238.42" y="287.66" width="58.34" height="12.54"/></g></g><g><g><rect class="cls-2" x="237.71" y="300.19" width="59.77" height="13.64"/><rect class="cls-1" x="238.42" y="300.75" width="58.34" height="12.54"/></g><g><rect class="cls-2" x="237.71" y="313.29" width="59.76" height="13.64"/><rect class="cls-1" x="238.42" y="313.84" width="58.33" height="12.54"/></g><g><rect class="cls-2" x="237.71" y="326.37" width="59.76" height="13.64"/><rect class="cls-1" x="238.42" y="326.92" width="58.34" height="12.54"/></g></g><g><g><rect class="cls-2" x="237.71" y="339.46" width="59.77" height="13.64"/><rect class="cls-1" x="238.42" y="340.01" width="58.34" height="12.54"/></g><g><rect class="cls-2" x="237.71" y="352.56" width="59.76" height="13.64"/><rect class="cls-1" x="238.42" y="353.11" width="58.33" height="12.54"/></g><g><rect class="cls-2" x="237.71" y="365.64" width="59.76" height="13.64"/><rect class="cls-1" x="238.42" y="366.19" width="58.34" height="12.54"/></g></g><g><g><rect class="cls-2" x="237.71" y="378.73" width="59.77" height="13.64"/><rect class="cls-1" x="238.42" y="379.28" width="58.34" height="12.54"/></g><g><rect class="cls-2" x="237.71" y="391.83" width="59.76" height="13.64"/><rect class="cls-1" x="238.42" y="392.38" width="58.33" height="12.54"/></g><g><rect class="cls-2" x="237.71" y="404.91" width="59.76" height="13.64"/><rect class="cls-1" x="238.42" y="405.46" width="58.34" height="12.54"/></g></g></g><g><g><g><rect class="cls-2" x="296.56" y="25.32" width="59.77" height="13.64"/><rect class="cls-1" x="297.27" y="25.87" width="58.34" height="12.54"/></g><g><rect class="cls-2" x="296.56" y="38.42" width="59.76" height="13.64"/><rect class="cls-1" x="297.27" y="38.97" width="58.33" height="12.54"/></g><g><rect class="cls-2" x="296.56" y="51.5" width="59.76" height="13.64"/><rect class="cls-1" x="297.27" y="52.05" width="58.34" height="12.54"/></g></g><g><g><rect class="cls-2" x="296.56" y="64.59" width="59.77" height="13.64"/><rect class="cls-1" x="297.27" y="65.14" width="58.34" height="12.54"/></g><g><rect class="cls-2" x="296.56" y="77.69" width="59.76" height="13.64"/><rect class="cls-1" x="297.27" y="78.24" width="58.33" height="12.54"/></g><g><rect class="cls-2" x="296.56" y="90.77" width="59.76" height="13.64"/><rect class="cls-1" x="297.27" y="91.32" width="58.34" height="12.54"/></g></g><g><g><rect class="cls-2" x="296.56" y="103.86" width="59.77" height="13.64"/><rect class="cls-1" x="297.27" y="104.42" width="58.34" height="12.54"/></g><g><rect class="cls-2" x="296.56" y="116.96" width="59.76" height="13.64"/><rect class="cls-1" x="297.27" y="117.51" width="58.33" height="12.54"/></g><g><rect class="cls-2" x="296.56" y="130.04" width="59.76" height="13.64"/><rect class="cls-1" x="297.27" y="130.59" width="58.34" height="12.54"/></g></g><g><g><rect class="cls-2" x="296.55" y="143.13" width="59.77" height="13.64"/><rect class="cls-1" x="297.26" y="143.68" width="58.34" height="12.54"/></g><g><rect class="cls-2" x="296.55" y="156.23" width="59.76" height="13.64"/><rect class="cls-1" x="297.26" y="156.78" width="58.33" height="12.54"/></g><g><rect class="cls-2" x="296.54" y="169.31" width="59.76" height="13.64"/><rect class="cls-1" x="297.26" y="169.86" width="58.34" height="12.54"/></g></g><g><g><rect class="cls-2" x="296.56" y="182.39" width="59.77" height="13.64"/><rect class="cls-1" x="297.27" y="182.94" width="58.34" height="12.54"/></g><g><rect class="cls-2" x="296.56" y="195.49" width="59.76" height="13.64"/><rect class="cls-1" x="297.27" y="196.04" width="58.33" height="12.54"/></g><g><rect class="cls-2" x="296.56" y="208.57" width="59.76" height="13.64"/><rect class="cls-1" x="297.27" y="209.12" width="58.34" height="12.54"/></g></g><g><g><rect class="cls-2" x="296.56" y="221.66" width="59.77" height="13.64"/><rect class="cls-1" x="297.27" y="222.21" width="58.34" height="12.54"/></g><g><rect class="cls-2" x="296.56" y="234.76" width="59.76" height="13.64"/><rect class="cls-1" x="297.27" y="235.31" width="58.33" height="12.54"/></g><g><rect class="cls-2" x="296.56" y="247.84" width="59.76" height="13.64"/><rect class="cls-1" x="297.27" y="248.39" width="58.34" height="12.54"/></g></g><g><g><rect class="cls-2" x="296.56" y="260.93" width="59.77" height="13.64"/><rect class="cls-1" x="297.27" y="261.48" width="58.34" height="12.54"/></g><g><rect class="cls-2" x="296.56" y="274.02" width="59.76" height="13.64"/><rect class="cls-1" x="297.27" y="274.58" width="58.33" height="12.54"/></g><g><rect class="cls-2" x="296.55" y="287.1" width="59.76" height="13.64"/><rect class="cls-1" x="297.26" y="287.66" width="58.34" height="12.54"/></g></g><g><g><rect class="cls-2" x="296.55" y="300.19" width="59.77" height="13.64"/><rect class="cls-1" x="297.26" y="300.75" width="58.34" height="12.54"/></g><g><rect class="cls-2" x="296.55" y="313.29" width="59.76" height="13.64"/><rect class="cls-1" x="297.26" y="313.84" width="58.33" height="12.54"/></g><g><rect class="cls-2" x="296.55" y="326.37" width="59.76" height="13.64"/><rect class="cls-1" x="297.26" y="326.92" width="58.34" height="12.54"/></g></g><g><g><rect class="cls-2" x="296.55" y="339.46" width="59.77" height="13.64"/><rect class="cls-1" x="297.26" y="340.01" width="58.34" height="12.54"/></g><g><rect class="cls-2" x="296.55" y="352.56" width="59.76" height="13.64"/><rect class="cls-1" x="297.26" y="353.11" width="58.33" height="12.54"/></g><g><rect class="cls-2" x="296.55" y="365.64" width="59.76" height="13.64"/><rect class="cls-1" x="297.26" y="366.19" width="58.34" height="12.54"/></g></g><g><g><rect class="cls-2" x="296.55" y="378.73" width="59.77" height="13.64"/><rect class="cls-1" x="297.26" y="379.28" width="58.34" height="12.54"/></g><g><rect class="cls-2" x="296.55" y="391.83" width="59.76" height="13.64"/><rect class="cls-1" x="297.26" y="392.38" width="58.33" height="12.54"/></g><g><rect class="cls-2" x="296.55" y="404.91" width="59.76" height="13.64"/><rect class="cls-1" x="297.26" y="405.46" width="58.34" height="12.54"/></g></g></g><g><g><g><rect class="cls-2" x="355.6" y="25.32" width="59.77" height="13.64"/><rect class="cls-1" x="356.31" y="25.87" width="58.34" height="12.54"/></g><g><rect class="cls-2" x="355.6" y="38.42" width="59.76" height="13.64"/><rect class="cls-1" x="356.31" y="38.97" width="58.33" height="12.54"/></g><g><rect class="cls-2" x="355.59" y="51.5" width="59.76" height="13.64"/><rect class="cls-1" x="356.3" y="52.05" width="58.34" height="12.54"/></g></g><g><g><rect class="cls-2" x="355.6" y="64.59" width="59.77" height="13.64"/><rect class="cls-1" x="356.31" y="65.14" width="58.34" height="12.54"/></g><g><rect class="cls-2" x="355.6" y="77.69" width="59.76" height="13.64"/><rect class="cls-1" x="356.31" y="78.24" width="58.33" height="12.54"/></g><g><rect class="cls-2" x="355.6" y="90.77" width="59.76" height="13.64"/><rect class="cls-1" x="356.31" y="91.32" width="58.34" height="12.54"/></g></g><g><g><rect class="cls-2" x="355.6" y="103.86" width="59.77" height="13.64"/><rect class="cls-1" x="356.31" y="104.42" width="58.34" height="12.54"/></g><g><rect class="cls-2" x="355.6" y="116.96" width="59.76" height="13.64"/><rect class="cls-1" x="356.31" y="117.51" width="58.33" height="12.54"/></g><g><rect class="cls-2" x="355.6" y="130.04" width="59.76" height="13.64"/><rect class="cls-1" x="356.31" y="130.59" width="58.34" height="12.54"/></g></g><g><g><rect class="cls-2" x="355.59" y="143.13" width="59.77" height="13.64"/><rect class="cls-1" x="356.3" y="143.68" width="58.34" height="12.54"/></g><g><rect class="cls-2" x="355.59" y="156.23" width="59.76" height="13.64"/><rect class="cls-1" x="356.3" y="156.78" width="58.33" height="12.54"/></g><g><rect class="cls-2" x="355.58" y="169.31" width="59.76" height="13.64"/><rect class="cls-1" x="356.29" y="169.86" width="58.34" height="12.54"/></g></g><g><g><rect class="cls-2" x="355.6" y="182.39" width="59.77" height="13.64"/><rect class="cls-1" x="356.31" y="182.94" width="58.34" height="12.54"/></g><g><rect class="cls-2" x="355.6" y="195.49" width="59.76" height="13.64"/><rect class="cls-1" x="356.31" y="196.04" width="58.33" height="12.54"/></g><g><rect class="cls-2" x="355.6" y="208.57" width="59.76" height="13.64"/><rect class="cls-1" x="356.31" y="209.12" width="58.34" height="12.54"/></g></g><g><g><rect class="cls-2" x="355.6" y="221.66" width="59.77" height="13.64"/><rect class="cls-1" x="356.31" y="222.21" width="58.34" height="12.54"/></g><g><rect class="cls-2" x="355.6" y="234.76" width="59.76" height="13.64"/><rect class="cls-1" x="356.31" y="235.31" width="58.33" height="12.54"/></g><g><rect class="cls-2" x="355.6" y="247.84" width="59.76" height="13.64"/><rect class="cls-1" x="356.31" y="248.39" width="58.34" height="12.54"/></g></g><g><g><rect class="cls-2" x="355.6" y="260.93" width="59.77" height="13.64"/><rect class="cls-1" x="356.31" y="261.48" width="58.34" height="12.54"/></g><g><rect class="cls-2" x="355.6" y="274.02" width="59.76" height="13.64"/><rect class="cls-1" x="356.31" y="274.58" width="58.33" height="12.54"/></g><g><rect class="cls-2" x="355.59" y="287.1" width="59.76" height="13.64"/><rect class="cls-1" x="356.3" y="287.66" width="58.34" height="12.54"/></g></g><g><g><rect class="cls-2" x="355.59" y="300.19" width="59.77" height="13.64"/><rect class="cls-1" x="356.3" y="300.75" width="58.34" height="12.54"/></g><g><rect class="cls-2" x="355.59" y="313.29" width="59.76" height="13.64"/><rect class="cls-1" x="356.3" y="313.84" width="58.33" height="12.54"/></g><g><rect class="cls-2" x="355.59" y="326.37" width="59.76" height="13.64"/><rect class="cls-1" x="356.3" y="326.92" width="58.34" height="12.54"/></g></g><g><g><rect class="cls-2" x="355.59" y="339.46" width="59.77" height="13.64"/><rect class="cls-1" x="356.3" y="340.01" width="58.34" height="12.54"/></g><g><rect class="cls-2" x="355.59" y="352.56" width="59.76" height="13.64"/><rect class="cls-1" x="356.3" y="353.11" width="58.33" height="12.54"/></g><g><rect class="cls-2" x="355.59" y="365.64" width="59.76" height="13.64"/><rect class="cls-1" x="356.3" y="366.19" width="58.34" height="12.54"/></g></g><g><g><rect class="cls-2" x="355.59" y="378.73" width="59.77" height="13.64"/><rect class="cls-1" x="356.3" y="379.28" width="58.34" height="12.54"/></g><g><rect class="cls-2" x="355.59" y="391.83" width="59.76" height="13.64"/><rect class="cls-1" x="356.3" y="392.38" width="58.33" height="12.54"/></g><g><rect class="cls-2" x="355.59" y="404.91" width="59.76" height="13.64"/><rect class="cls-1" x="356.3" y="405.46" width="58.34" height="12.54"/></g></g></g><g><g><g><rect class="cls-2" x="414.65" y="25.32" width="59.77" height="13.64"/><rect class="cls-1" x="415.36" y="25.87" width="58.34" height="12.54"/></g><g><rect class="cls-2" x="414.65" y="38.42" width="59.76" height="13.64"/><rect class="cls-1" x="415.36" y="38.97" width="58.33" height="12.54"/></g><g><rect class="cls-2" x="414.64" y="51.5" width="59.76" height="13.64"/><rect class="cls-1" x="415.35" y="52.05" width="58.34" height="12.54"/></g></g><g><g><rect class="cls-2" x="414.65" y="64.59" width="59.77" height="13.64"/><rect class="cls-1" x="415.36" y="65.14" width="58.34" height="12.54"/></g><g><rect class="cls-2" x="414.65" y="77.69" width="59.76" height="13.64"/><rect class="cls-1" x="415.36" y="78.24" width="58.33" height="12.54"/></g><g><rect class="cls-2" x="414.65" y="90.77" width="59.76" height="13.64"/><rect class="cls-1" x="415.36" y="91.32" width="58.34" height="12.54"/></g></g><g><g><rect class="cls-2" x="414.65" y="103.86" width="59.77" height="13.64"/><rect class="cls-1" x="415.36" y="104.42" width="58.34" height="12.54"/></g><g><rect class="cls-2" x="414.65" y="116.96" width="59.76" height="13.64"/><rect class="cls-1" x="415.36" y="117.51" width="58.33" height="12.54"/></g><g><rect class="cls-2" x="414.65" y="130.04" width="59.76" height="13.64"/><rect class="cls-1" x="415.36" y="130.59" width="58.34" height="12.54"/></g></g><g><g><rect class="cls-2" x="414.64" y="143.13" width="59.77" height="13.64"/><rect class="cls-1" x="415.35" y="143.68" width="58.34" height="12.54"/></g><g><rect class="cls-2" x="414.64" y="156.23" width="59.76" height="13.64"/><rect class="cls-1" x="415.35" y="156.78" width="58.33" height="12.54"/></g><g><rect class="cls-2" x="414.63" y="169.31" width="59.76" height="13.64"/><rect class="cls-1" x="415.34" y="169.86" width="58.34" height="12.54"/></g></g><g><g><rect class="cls-2" x="414.65" y="182.39" width="59.77" height="13.64"/><rect class="cls-1" x="415.36" y="182.94" width="58.34" height="12.54"/></g><g><rect class="cls-2" x="414.65" y="195.49" width="59.76" height="13.64"/><rect class="cls-1" x="415.36" y="196.04" width="58.33" height="12.54"/></g><g><rect class="cls-2" x="414.65" y="208.57" width="59.76" height="13.64"/><rect class="cls-1" x="415.36" y="209.12" width="58.34" height="12.54"/></g></g><g><g><rect class="cls-2" x="414.65" y="221.66" width="59.77" height="13.64"/><rect class="cls-1" x="415.36" y="222.21" width="58.34" height="12.54"/></g><g><rect class="cls-2" x="414.65" y="234.76" width="59.76" height="13.64"/><rect class="cls-1" x="415.36" y="235.31" width="58.33" height="12.54"/></g><g><rect class="cls-2" x="414.65" y="247.84" width="59.76" height="13.64"/><rect class="cls-1" x="415.36" y="248.39" width="58.34" height="12.54"/></g></g><g><g><rect class="cls-2" x="414.64" y="260.93" width="59.77" height="13.64"/><rect class="cls-1" x="415.36" y="261.48" width="58.34" height="12.54"/></g><g><rect class="cls-2" x="414.64" y="274.02" width="59.76" height="13.64"/><rect class="cls-1" x="415.36" y="274.58" width="58.33" height="12.54"/></g><g><rect class="cls-2" x="414.64" y="287.1" width="59.76" height="13.64"/><rect class="cls-1" x="415.35" y="287.66" width="58.34" height="12.54"/></g></g><g><g><rect class="cls-2" x="414.64" y="300.19" width="59.77" height="13.64"/><rect class="cls-1" x="415.35" y="300.75" width="58.34" height="12.54"/></g><g><rect class="cls-2" x="414.64" y="313.29" width="59.76" height="13.64"/><rect class="cls-1" x="415.35" y="313.84" width="58.33" height="12.54"/></g><g><rect class="cls-2" x="414.63" y="326.37" width="59.76" height="13.64"/><rect class="cls-1" x="415.34" y="326.92" width="58.34" height="12.54"/></g></g><g><g><rect class="cls-2" x="414.64" y="339.46" width="59.77" height="13.64"/><rect class="cls-1" x="415.35" y="340.01" width="58.34" height="12.54"/></g><g><rect class="cls-2" x="414.64" y="352.56" width="59.76" height="13.64"/><rect class="cls-1" x="415.35" y="353.11" width="58.33" height="12.54"/></g><g><rect class="cls-2" x="414.63" y="365.64" width="59.76" height="13.64"/><rect class="cls-1" x="415.34" y="366.19" width="58.34" height="12.54"/></g></g><g><g><rect class="cls-2" x="414.64" y="378.73" width="59.77" height="13.64"/><rect class="cls-1" x="415.35" y="379.28" width="58.34" height="12.54"/></g><g><rect class="cls-2" x="414.64" y="391.83" width="59.76" height="13.64"/><rect class="cls-1" x="415.35" y="392.38" width="58.33" height="12.54"/></g><g><rect class="cls-2" x="414.64" y="404.91" width="59.76" height="13.64"/><rect class="cls-1" x="415.35" y="405.46" width="58.34" height="12.54"/></g></g></g><g><g><g><rect class="cls-2" x="473.7" y="25.32" width="59.77" height="13.64"/><rect class="cls-1" x="474.41" y="25.87" width="58.34" height="12.54"/></g><g><rect class="cls-2" x="473.7" y="38.42" width="59.76" height="13.64"/><rect class="cls-1" x="474.41" y="38.97" width="58.33" height="12.54"/></g><g><rect class="cls-2" x="473.69" y="51.5" width="59.76" height="13.64"/><rect class="cls-1" x="474.4" y="52.05" width="58.34" height="12.54"/></g></g><g><g><rect class="cls-2" x="473.7" y="64.59" width="59.77" height="13.64"/><rect class="cls-1" x="474.41" y="65.14" width="58.34" height="12.54"/></g><g><rect class="cls-2" x="473.7" y="77.69" width="59.76" height="13.64"/><rect class="cls-1" x="474.41" y="78.24" width="58.33" height="12.54"/></g><g><rect class="cls-2" x="473.7" y="90.77" width="59.76" height="13.64"/><rect class="cls-1" x="474.41" y="91.32" width="58.34" height="12.54"/></g></g><g><g><rect class="cls-2" x="473.7" y="103.86" width="59.77" height="13.64"/><rect class="cls-1" x="474.41" y="104.42" width="58.34" height="12.54"/></g><g><rect class="cls-2" x="473.7" y="116.96" width="59.76" height="13.64"/><rect class="cls-1" x="474.41" y="117.51" width="58.33" height="12.54"/></g><g><rect class="cls-2" x="473.7" y="130.04" width="59.76" height="13.64"/><rect class="cls-1" x="474.41" y="130.59" width="58.34" height="12.54"/></g></g><g><g><rect class="cls-2" x="473.69" y="143.13" width="59.77" height="13.64"/><rect class="cls-1" x="474.4" y="143.68" width="58.34" height="12.54"/></g><g><rect class="cls-2" x="473.69" y="156.23" width="59.76" height="13.64"/><rect class="cls-1" x="474.4" y="156.78" width="58.33" height="12.54"/></g><g><rect class="cls-2" x="473.68" y="169.31" width="59.76" height="13.64"/><rect class="cls-1" x="474.39" y="169.86" width="58.34" height="12.54"/></g></g><g><g><rect class="cls-2" x="473.7" y="182.39" width="59.77" height="13.64"/><rect class="cls-1" x="474.41" y="182.94" width="58.34" height="12.54"/></g><g><rect class="cls-2" x="473.7" y="195.49" width="59.76" height="13.64"/><rect class="cls-1" x="474.41" y="196.04" width="58.33" height="12.54"/></g><g><rect class="cls-2" x="473.7" y="208.57" width="59.76" height="13.64"/><rect class="cls-1" x="474.41" y="209.12" width="58.34" height="12.54"/></g></g><g><g><rect class="cls-2" x="473.7" y="221.66" width="59.77" height="13.64"/><rect class="cls-1" x="474.41" y="222.21" width="58.34" height="12.54"/></g><g><rect class="cls-2" x="473.7" y="234.76" width="59.76" height="13.64"/><rect class="cls-1" x="474.41" y="235.31" width="58.33" height="12.54"/></g><g><rect class="cls-2" x="473.7" y="247.84" width="59.76" height="13.64"/><rect class="cls-1" x="474.41" y="248.39" width="58.34" height="12.54"/></g></g><g><g><rect class="cls-2" x="473.7" y="260.93" width="59.77" height="13.64"/><rect class="cls-1" x="474.41" y="261.48" width="58.34" height="12.54"/></g><g><rect class="cls-2" x="473.7" y="274.02" width="59.76" height="13.64"/><rect class="cls-1" x="474.41" y="274.58" width="58.33" height="12.54"/></g><g><rect class="cls-2" x="473.69" y="287.1" width="59.76" height="13.64"/><rect class="cls-1" x="474.4" y="287.66" width="58.34" height="12.54"/></g></g><g><g><rect class="cls-2" x="473.69" y="300.19" width="59.77" height="13.64"/><rect class="cls-1" x="474.4" y="300.75" width="58.34" height="12.54"/></g><g><rect class="cls-2" x="473.69" y="313.29" width="59.76" height="13.64"/><rect class="cls-1" x="474.4" y="313.84" width="58.33" height="12.54"/></g><g><rect class="cls-2" x="473.68" y="326.37" width="59.76" height="13.64"/><rect class="cls-1" x="474.39" y="326.92" width="58.34" height="12.54"/></g></g><g><g><rect class="cls-2" x="473.69" y="339.46" width="59.77" height="13.64"/><rect class="cls-1" x="474.4" y="340.01" width="58.34" height="12.54"/></g><g><rect class="cls-2" x="473.69" y="352.56" width="59.76" height="13.64"/><rect class="cls-1" x="474.4" y="353.11" width="58.33" height="12.54"/></g><g><rect class="cls-2" x="473.68" y="365.64" width="59.76" height="13.64"/><rect class="cls-1" x="474.39" y="366.19" width="58.34" height="12.54"/></g></g><g><g><rect class="cls-2" x="473.69" y="378.73" width="59.77" height="13.64"/><rect class="cls-1" x="474.4" y="379.28" width="58.34" height="12.54"/></g><g><rect class="cls-2" x="473.69" y="391.83" width="59.76" height="13.64"/><rect class="cls-1" x="474.4" y="392.38" width="58.33" height="12.54"/></g><g><rect class="cls-2" x="473.69" y="404.91" width="59.76" height="13.64"/><rect class="cls-1" x="474.4" y="405.46" width="58.34" height="12.54"/></g></g></g></svg>