<svg xmlns="http://www.w3.org/2000/svg" width="256" height="256" viewBox="0 0 100 100"><rect width="100" height="100" rx="50" fill="#000000"></rect><path fill="#fff" d="M21.49 63.14L21.49 63.14Q18.52 63.14 16.09 62.17Q13.66 61.20 11.89 59.45Q10.11 57.69 9.16 55.29Q8.22 52.88 8.22 49.95L8.22 49.95Q8.22 46.17 9.86 43.20Q11.50 40.23 14.50 38.55Q17.49 36.86 21.54 36.86L21.54 36.86Q23.97 36.86 25.92 37.60Q27.88 38.34 29.21 39.69Q30.54 41.05 31.12 42.80L31.12 42.80L30.13 42.80L30.13 37.31L32.83 37.31L32.83 44.96L30.40 45.05Q29.01 42.13 26.87 40.84Q24.73 39.56 21.72 39.56L21.72 39.56Q18.70 39.56 16.50 40.93Q14.29 42.30 13.10 44.64Q11.91 46.98 11.91 49.91L11.91 49.91Q11.91 52.29 12.65 54.23Q13.39 56.16 14.72 57.56Q16.05 58.95 17.83 59.70Q19.60 60.44 21.72 60.44L21.72 60.44Q23.61 60.44 25.36 59.85Q27.12 59.27 28.51 57.94Q29.91 56.61 30.67 54.45L30.67 54.45L33.37 55.80Q32.29 58.55 30.49 60.15Q28.69 61.74 26.38 62.42Q24.06 63.09 21.49 63.14ZM59.97 62.64L37.69 62.64L37.69 60.26L41.20 60.26L41.20 39.69L37.69 39.69L37.69 37.31L59.74 37.31L59.74 44.82L56.91 44.82L56.91 39.69L44.89 39.69L44.89 48.29L52.77 48.29L52.77 45.32L54.61 45.32L54.61 53.78L52.77 53.78L52.77 50.77L44.89 50.77L44.89 60.26L57.13 60.26L57.13 54.99L59.97 54.99L59.97 62.64ZM78.06 63.14L78.06 63.14Q74.95 63.14 72.41 62.10Q69.87 61.07 68.07 59.25Q66.27 57.42 65.30 55.06Q64.33 52.70 64.33 50.04L64.33 50.04Q64.33 47.39 65.30 45.00Q66.27 42.62 68.07 40.80Q69.87 38.97 72.41 37.92Q74.95 36.86 78.06 36.86L78.06 36.86Q81.16 36.86 83.70 37.92Q86.25 38.97 88.05 40.80Q89.85 42.62 90.81 45.00Q91.78 47.39 91.78 50.04L91.78 50.04Q91.78 52.70 90.81 55.06Q89.85 57.42 88.05 59.25Q86.25 61.07 83.73 62.10Q81.21 63.14 78.06 63.14ZM78.06 60.44L78.06 60.44Q80.35 60.44 82.17 59.63Q84.00 58.82 85.28 57.38Q86.56 55.94 87.22 54.07Q87.87 52.20 87.87 50.04L87.87 50.04Q87.87 47.88 87.22 45.97Q86.56 44.06 85.28 42.62Q84.00 41.18 82.17 40.35Q80.35 39.52 78.06 39.52L78.06 39.52Q75.72 39.52 73.92 40.35Q72.12 41.18 70.86 42.64Q69.60 44.10 68.94 46.02Q68.29 47.93 68.29 50.09L68.29 50.09Q68.29 52.25 68.94 54.12Q69.60 55.98 70.86 57.42Q72.12 58.86 73.92 59.65Q75.72 60.44 78.06 60.44Z"></path></svg>